<?xml version="1.0" standalone="no"?>
<!DOCTYPE svg PUBLIC "-//W3C//DTD SVG 20010904//EN"
 "http://www.w3.org/TR/2001/REC-SVG-20010904/DTD/svg10.dtd">
<svg version="1.0" xmlns="http://www.w3.org/2000/svg"
 width="2165.000000pt" height="1093.000000pt" viewBox="0 0 2165.000000 1093.000000"
 preserveAspectRatio="xMidYMid meet">

<g transform="translate(0.000000,1093.000000) scale(0.100000,-0.100000)"
fill="#000000" stroke="none">
<path d="M10906 10918 c-98 -14 -188 -80 -236 -174 l-25 -49 -3 -790 c-2 -560
0 -802 8 -830 17 -60 73 -136 129 -174 81 -55 128 -61 479 -61 171 0 312 -2
312 -5 0 -3 -29 -87 -65 -188 -36 -101 -65 -187 -65 -190 0 -4 24 -7 53 -7
l54 0 6 -212 c4 -116 7 -384 7 -595 l0 -383 -763 0 c-595 0 -767 -3 -779 -12
-14 -11 -120 -317 -414 -1193 -35 -104 -133 -396 -219 -649 -85 -252 -155
-469 -155 -481 0 -12 6 -28 13 -34 10 -8 226 -12 748 -13 449 -2 726 -7 714
-12 -11 -5 -75 -38 -143 -74 l-124 -65 36 -36 c20 -20 36 -40 36 -45 0 -4 -33
-42 -72 -84 -40 -43 -131 -140 -203 -217 -71 -77 -166 -178 -210 -225 -44 -47
-138 -148 -210 -225 -141 -152 -259 -277 -371 -395 -39 -41 -138 -147 -219
-235 -82 -88 -176 -189 -210 -225 -34 -36 -130 -139 -215 -230 -84 -91 -158
-165 -163 -165 -6 0 -35 29 -65 65 -30 36 -71 83 -91 105 -20 22 -81 92 -136
155 -54 63 -102 117 -105 120 -11 10 -226 256 -280 320 -30 36 -69 81 -86 100
-17 19 -67 76 -110 125 -43 50 -81 92 -84 95 -12 11 -229 260 -280 320 -30 36
-69 81 -86 100 -18 19 -53 60 -79 90 -27 30 -80 91 -119 135 -153 171 -209
236 -220 254 -6 9 4 24 34 50 l43 37 -134 73 c-74 40 -138 77 -143 82 -6 5
201 9 536 9 424 0 548 3 555 13 6 6 105 293 221 637 116 344 289 859 386 1146
97 286 176 530 176 542 0 12 -9 26 -19 32 -13 7 -275 10 -779 10 l-759 0 -7
591 c-4 325 -6 592 -4 594 2 2 29 5 60 6 l56 2 -18 51 c-10 28 -41 113 -69
189 -28 76 -51 141 -51 143 0 2 141 4 313 4 222 0 328 4 368 13 109 26 210
120 239 222 8 29 10 267 8 830 l-3 790 -27 52 c-33 61 -85 113 -147 145 l-46
23 -715 0 -715 0 -48 -25 c-63 -32 -111 -79 -145 -143 l-27 -52 -3 -795 c-3
-876 -5 -840 60 -925 18 -24 54 -58 80 -75 78 -54 127 -60 476 -60 171 0 312
-4 312 -8 0 -5 -26 -83 -59 -173 -32 -90 -62 -174 -65 -186 -7 -22 -5 -23 47
-23 l54 0 6 -122 c4 -66 7 -334 7 -595 l0 -473 -764 0 c-647 0 -767 -2 -779
-14 -8 -8 -55 -135 -105 -283 -50 -147 -152 -450 -227 -673 -76 -223 -209
-616 -296 -875 -87 -258 -159 -479 -159 -490 0 -12 5 -26 12 -33 9 -9 244 -12
997 -12 l986 0 64 -171 c36 -94 69 -173 73 -175 5 -3 23 8 40 25 18 17 37 31
43 31 7 0 52 -46 101 -102 49 -56 131 -150 183 -208 140 -158 142 -160 201
-230 59 -70 324 -372 399 -456 66 -73 99 -111 161 -184 55 -65 151 -175 284
-325 246 -276 339 -385 327 -385 -5 0 -36 11 -68 25 -32 13 -296 121 -588 240
-291 119 -566 231 -610 250 -44 18 -181 75 -305 125 -124 51 -286 117 -360
147 -74 30 -232 95 -350 143 -118 49 -327 134 -465 190 -304 124 -433 176
-770 315 -143 58 -442 181 -665 272 -223 91 -459 188 -525 215 -66 27 -149 61
-185 75 -36 14 -67 28 -69 29 -2 2 5 26 17 53 l20 50 -41 5 c-23 3 -118 8
-212 11 l-170 6 25 -24 c37 -34 241 -219 267 -241 l23 -19 21 49 c12 27 23 50
24 52 1 1 58 -21 126 -49 68 -28 221 -91 339 -139 118 -48 388 -158 600 -245
212 -86 432 -177 490 -200 153 -62 610 -249 720 -295 52 -22 295 -121 540
-221 245 -100 522 -213 615 -251 94 -38 292 -119 440 -180 149 -60 317 -129
375 -153 58 -24 270 -111 472 -193 202 -83 377 -157 389 -166 20 -14 -71 -15
-939 -16 -529 0 -967 -3 -975 -5 -7 -3 -29 -38 -50 -78 -20 -40 -77 -151 -127
-247 -534 -1023 -1103 -2123 -1113 -2149 -8 -23 -9 -36 -1 -49 11 -16 160 -17
2600 -17 l2589 0 85 165 c136 265 290 559 330 635 21 39 74 140 118 225 44 85
169 326 277 535 109 209 231 445 273 525 41 80 106 205 144 278 69 132 77 163
42 176 -8 3 -730 6 -1605 6 -874 0 -1589 3 -1589 6 0 7 62 35 750 344 333 149
715 321 850 382 135 61 308 139 385 173 77 34 482 217 900 405 418 188 839
378 935 421 96 42 350 157 565 253 214 97 394 176 401 176 6 0 19 -18 29 -40
10 -23 22 -43 27 -46 9 -6 301 276 294 283 -5 5 -399 -26 -404 -32 -3 -2 5
-26 16 -52 l21 -48 -72 -33 c-40 -19 -175 -80 -302 -137 -126 -56 -482 -216
-790 -355 -308 -139 -663 -299 -790 -355 -271 -122 -418 -188 -895 -403 -622
-280 -1542 -693 -1633 -733 -49 -22 -107 -48 -130 -59 -22 -11 -43 -18 -45
-15 -3 3 33 44 80 92 47 49 111 117 143 153 32 36 86 94 120 130 143 151 550
585 665 710 69 74 127 137 131 140 3 3 72 77 154 165 82 88 205 220 274 294
69 73 144 153 165 177 21 24 44 44 50 44 5 0 26 -16 46 -35 l37 -36 36 83 c20
46 54 124 75 173 l38 90 800 5 c439 3 800 6 800 8 1 1 5 10 9 20 7 17 331 974
590 1742 79 234 153 452 164 484 26 73 26 102 2 116 -13 7 -275 10 -780 10
l-761 0 0 128 c0 70 -3 337 -7 595 l-6 467 52 0 c33 0 53 5 57 13 2 7 -25 91
-61 186 -36 95 -65 177 -65 181 0 5 152 10 338 12 294 4 343 6 385 22 61 23
145 100 177 162 l25 49 0 810 0 810 -24 45 c-49 91 -103 139 -192 169 -40 13
-1307 22 -1393 9z m-3251 -32 c69 -18 93 -31 143 -79 26 -26 50 -62 62 -95 20
-52 20 -77 20 -833 0 -772 0 -780 -21 -829 -27 -62 -99 -131 -164 -156 -48
-18 -84 -19 -730 -19 l-680 0 -55 26 c-68 32 -113 77 -145 146 l-25 52 0 778
c0 428 4 792 9 809 28 99 114 179 218 203 21 5 326 9 678 10 506 1 651 -2 690
-13z m4600 3 c92 -24 147 -61 189 -129 46 -72 46 -64 46 -875 0 -756 0 -774
-20 -828 -25 -67 -94 -135 -165 -163 -48 -18 -84 -19 -725 -19 -641 0 -677 1
-725 19 -65 25 -137 94 -166 159 l-24 52 0 775 c0 740 1 777 19 825 36 93 134
171 236 188 60 10 1297 6 1335 -4z m-5283 -2241 c-7 -7 -12 -8 -12 -2 0 14 12
26 19 19 2 -3 -1 -11 -7 -17z m4627 -21 c1 -5 -6 -1 -15 7 -8 9 -12 21 -8 28
5 8 10 6 15 -8 4 -10 8 -23 8 -27z m-40 -36 c-6 -18 -13 -30 -15 -28 -2 2 1
18 7 36 6 18 13 30 15 28 2 -2 -1 -18 -7 -36z m-4549 -16 c0 -5 -5 -3 -10 5
-5 8 -10 20 -10 25 0 6 5 3 10 -5 5 -8 10 -19 10 -25z m4614 -15 c5 -17 4 -20
-2 -10 -5 8 -13 26 -16 40 -5 17 -4 20 2 10 5 -8 13 -26 16 -40z m-4685 1 c-6
-18 -13 -30 -15 -28 -2 2 1 18 7 36 6 18 13 30 15 28 2 -2 -1 -18 -7 -36z m91
-41 c0 -6 -25 -9 -57 -8 l-58 1 55 7 c30 4 56 7 58 8 1 1 2 -2 2 -8z m4610 0
c0 -6 -26 -9 -62 -8 l-63 1 60 7 c33 4 61 7 63 8 1 1 2 -2 2 -8z m-3180 -1356
c0 -3 -61 -186 -136 -407 -178 -528 -404 -1198 -513 -1522 l-88 -260 -1496 -3
c-824 -1 -1497 0 -1497 3 0 3 72 218 159 478 212 630 570 1689 576 1705 3 9
313 12 1500 12 822 0 1495 -3 1495 -6z m4610 2 c0 -2 -104 -312 -231 -688
-127 -375 -292 -867 -368 -1093 l-138 -410 -1497 -3 c-845 -1 -1496 2 -1496 7
0 4 32 102 71 217 39 115 184 542 321 949 292 865 336 996 343 1013 3 9 313
12 1500 12 822 0 1495 -2 1495 -4z m579 -2323 c-1 -5 -27 -32 -59 -61 l-59
-54 -16 32 c-9 18 -14 34 -12 36 2 3 10 -9 17 -26 l13 -31 49 48 c47 46 48 48
26 55 -19 5 -18 6 10 7 17 1 31 -2 31 -6z m-114 -10 c-16 -3 -33 -10 -37 -16
-5 -8 -8 -6 -8 6 0 13 8 17 38 16 34 -2 34 -2 7 -6z m-10129 -131 c16 -15 21
-20 10 -12 -35 24 -96 84 -96 92 0 5 12 -5 28 -22 15 -17 41 -43 58 -58z
m7275 61 c-6 -10 -11 -12 -11 -6 0 13 -110 -35 -110 -47 0 -4 14 -19 30 -35
26 -25 32 -27 40 -15 6 9 10 10 10 3 0 -28 -25 -23 -61 13 l-39 39 72 36 c40
20 75 36 76 34 2 -2 -1 -12 -7 -22z m-7201 10 c0 -5 -5 -15 -11 -23 -9 -13
-10 -13 -5 2 4 14 -3 18 -37 21 l-42 4 48 1 c26 1 47 -1 47 -5z m3276 -9 c18
-15 18 -15 -2 -5 -12 6 -24 7 -28 4 -3 -3 -6 -1 -6 5 0 16 12 15 36 -4z m-6
-49 c0 -5 -5 -3 -10 5 -5 8 -10 20 -10 25 0 6 5 3 10 -5 5 -8 10 -19 10 -25z
m110 -10 c0 -7 -74 -74 -82 -75 -5 0 -8 5 -8 11 0 5 4 8 8 5 5 -3 24 10 42 29
19 19 29 35 24 35 -6 0 -19 7 -30 15 -17 14 -15 14 14 0 17 -8 32 -18 32 -20z
m3796 -2 c-8 -15 -15 -25 -16 -21 0 12 23 58 27 54 3 -2 -2 -17 -11 -33z
m-7205 0 c-12 -20 -14 -14 -5 12 4 9 9 14 11 11 3 -2 0 -13 -6 -23z m3319 -38
c0 -5 -5 -3 -10 5 -5 8 -10 20 -10 25 0 6 5 3 10 -5 5 -8 10 -19 10 -25z
m4990 -2202 c0 -6 -54 -111 -240 -468 -32 -60 -91 -175 -133 -255 -41 -80
-188 -363 -327 -630 -139 -267 -286 -550 -327 -630 -42 -80 -103 -198 -137
-262 l-61 -118 -2507 0 c-1380 0 -2508 1 -2508 3 0 3 234 456 430 832 32 61
92 178 135 260 43 83 101 195 130 250 29 55 96 186 151 290 54 105 129 249
166 320 38 72 101 194 141 273 l72 142 2507 0 c1380 0 2508 -3 2508 -7z"/>
<path d="M6633 10560 c-20 -73 -34 -76 -88 -20 l-38 39 -37 -20 -36 -21 15
-59 c20 -75 12 -84 -55 -64 -66 20 -67 20 -88 -20 l-20 -36 42 -42 c23 -24 42
-48 42 -54 0 -7 -27 -20 -60 -29 l-61 -17 3 -46 3 -45 58 -14 c31 -8 57 -20
57 -26 0 -7 -18 -30 -40 -51 -22 -21 -40 -44 -40 -50 0 -5 9 -24 19 -42 l20
-32 60 19 c77 23 84 16 61 -61 l-19 -60 32 -20 c44 -26 51 -25 87 21 39 50 66
52 75 8 15 -77 24 -88 71 -88 l43 0 13 60 c15 73 26 75 85 18 l43 -42 35 18
c40 22 40 25 20 92 -8 28 -11 52 -6 57 6 6 30 4 60 -3 l51 -12 -15 -28 c-21
-41 -20 -45 24 -77 23 -17 37 -34 33 -40 -4 -6 -26 -19 -50 -28 -43 -18 -46
-23 -36 -62 5 -18 16 -24 55 -29 27 -4 49 -12 49 -18 0 -6 -11 -28 -25 -49
-24 -35 -25 -39 -10 -59 21 -32 19 -38 -15 -38 -34 0 -36 9 -15 49 13 26 13
30 -3 44 -16 15 -20 15 -47 -3 -36 -23 -45 -18 -45 25 0 21 -6 35 -16 39 -26
10 -31 7 -44 -24 -16 -38 -31 -38 -53 0 -15 24 -21 28 -40 21 -17 -7 -21 -16
-20 -37 5 -50 -3 -56 -39 -34 -49 30 -78 -7 -43 -56 18 -26 11 -34 -31 -34
-30 0 -44 -13 -44 -41 0 -6 14 -15 30 -20 38 -14 38 -34 0 -54 -24 -13 -28
-19 -21 -38 6 -16 18 -23 45 -25 41 -4 41 -3 21 -41 -13 -26 -13 -30 5 -46 18
-16 20 -16 50 5 33 23 37 20 42 -35 4 -44 41 -47 63 -6 20 39 30 39 50 0 11
-20 21 -29 31 -25 9 3 20 6 26 6 6 0 8 17 6 40 -4 44 0 47 41 25 26 -13 30
-13 46 5 17 18 17 22 2 38 -29 33 -25 46 18 52 31 4 41 10 43 26 2 16 -5 25
-27 34 -39 16 -39 30 -1 52 26 15 29 20 21 42 -9 22 -6 26 30 40 60 24 63 23
56 -37 -7 -52 -6 -53 25 -65 29 -11 33 -9 59 21 16 18 29 35 29 40 0 4 5 7 11
7 5 0 20 -23 31 -51 18 -42 25 -50 42 -45 12 3 26 6 32 6 6 0 14 22 18 50 4
27 10 51 15 54 4 3 27 -9 50 -26 41 -30 42 -30 64 -12 12 10 24 20 26 21 2 1
-4 20 -13 43 -24 60 -22 63 34 58 52 -5 62 0 74 39 5 17 -1 27 -33 50 -22 15
-41 34 -41 40 0 10 30 24 60 28 27 3 38 23 31 55 -6 33 -9 35 -51 38 -64 5
-69 15 -31 62 31 39 32 40 14 65 -21 29 -34 30 -74 9 -47 -24 -57 -14 -49 43
8 51 4 58 -38 69 -16 5 -27 1 -37 -12 -7 -11 -22 -30 -33 -44 l-21 -25 -23 53
c-21 51 -24 53 -52 48 -36 -7 -46 -21 -46 -61 0 -51 -18 -58 -61 -25 -44 36
-50 36 -74 9 -17 -18 -17 -24 -6 -52 27 -67 27 -67 -18 -67 -22 0 -41 2 -41 5
0 3 9 23 20 45 l20 38 -48 47 c-45 45 -46 47 -28 61 11 8 25 14 30 14 6 0 28
5 49 11 35 9 37 12 37 52 0 40 -2 43 -40 55 -22 6 -46 12 -54 12 -7 0 -20 7
-27 16 -11 14 -7 22 36 58 l48 42 -22 40 -23 41 -60 -20 c-76 -25 -84 -17 -63
57 18 63 16 70 -27 92 -30 16 -31 16 -72 -25 -57 -56 -69 -54 -85 19 l-13 60
-44 0 -44 0 -17 -60z m85 -107 c-16 -2 -40 -2 -55 0 -16 2 -3 4 27 4 30 0 43
-2 28 -4z m-128 -17 c0 -2 -7 -7 -16 -10 -8 -3 -12 -2 -9 4 6 10 25 14 25 6z
m-70 -39 c0 -2 -12 -14 -27 -28 l-28 -24 24 28 c23 25 31 32 31 24z m286 -32
c154 -91 148 -313 -12 -391 -46 -22 -64 -26 -119 -22 -83 5 -137 41 -177 117
-105 201 113 410 308 296z m142 -70 c-3 -3 -9 2 -12 12 -6 14 -5 15 5 6 7 -7
10 -15 7 -18z m-515 -20 c-3 -9 -8 -14 -10 -11 -3 3 -2 9 2 15 9 16 15 13 8
-4z m-16 -47 c-3 -8 -6 -5 -6 6 -1 11 2 17 5 13 3 -3 4 -12 1 -19z m560 -75
c-3 -10 -5 -2 -5 17 0 19 2 27 5 18 2 -10 2 -26 0 -35z m-560 -45 c-3 -8 -6
-5 -6 6 -1 11 2 17 5 13 3 -3 4 -12 1 -19z m17 -34 c3 -8 2 -12 -4 -9 -6 3
-10 10 -10 16 0 14 7 11 14 -7z m506 -44 c-6 -11 -13 -20 -16 -20 -2 0 0 9 6
20 6 11 13 20 16 20 2 0 0 -9 -6 -20z m-440 -55 c19 -19 32 -35 29 -35 -3 0
-20 16 -39 35 -19 19 -32 35 -29 35 3 0 20 -16 39 -35z m420 22 c0 -2 -15 -16
-32 -33 l-33 -29 29 33 c28 30 36 37 36 29z m448 -34 c-10 -2 -26 -2 -35 0
-10 3 -2 5 17 5 19 0 27 -2 18 -5z m-148 -36 c0 -2 -15 -16 -32 -33 l-33 -29
29 33 c28 30 36 37 36 29z m206 -26 c125 -57 138 -227 22 -307 -89 -62 -208
-31 -258 67 -78 151 79 311 236 240z m85 2 c13 -16 12 -17 -3 -4 -10 7 -18 15
-18 17 0 8 8 3 21 -13z m-848 -10 c-7 -2 -19 -2 -25 0 -7 3 -2 5 12 5 14 0 19
-2 13 -5z m84 1 c-3 -3 -12 -4 -19 -1 -8 3 -5 6 6 6 11 1 17 -2 13 -5z m380
-176 c-2 -13 -4 -3 -4 22 0 25 2 35 4 23 2 -13 2 -33 0 -45z m450 10 c-3 -7
-5 -2 -5 12 0 14 2 19 5 13 2 -7 2 -19 0 -25z m-382 -148 c10 -11 16 -20 13
-20 -3 0 -13 9 -23 20 -10 11 -16 20 -13 20 3 0 13 -9 23 -20z m-317 -27 c-10
-2 -26 -2 -35 0 -10 3 -2 5 17 5 19 0 27 -2 18 -5z m61 -59 c17 -14 36 -42 42
-63 22 -74 -43 -161 -121 -161 -76 0 -140 88 -119 164 23 82 132 116 198 60z
m424 19 c-7 -2 -21 -2 -30 0 -10 3 -4 5 12 5 17 0 24 -2 18 -5z"/>
<path d="M11257 10613 c-2 -5 -10 -32 -17 -60 -15 -65 -31 -68 -84 -14 l-39
40 -39 -20 c-28 -14 -38 -25 -34 -36 18 -46 28 -105 19 -114 -6 -6 -28 -4 -59
6 -66 20 -67 20 -88 -20 l-20 -36 42 -42 c23 -24 42 -48 42 -54 0 -6 -28 -20
-62 -30 l-63 -18 -3 -42 c-3 -46 -9 -42 101 -69 37 -9 34 -23 -13 -69 -22 -21
-40 -44 -40 -50 0 -5 9 -24 19 -42 l20 -32 60 19 c57 17 61 17 66 1 3 -10 -1
-39 -10 -66 -16 -55 -12 -66 37 -86 30 -12 32 -11 67 29 51 60 67 56 82 -18
l12 -60 48 0 48 0 13 60 c15 73 26 75 85 18 l43 -42 35 18 c40 22 40 25 20 92
-8 28 -11 52 -6 57 6 6 30 4 60 -3 l50 -12 -17 -35 -17 -35 38 -30 c20 -16 37
-36 37 -43 0 -7 -20 -20 -45 -29 -46 -18 -49 -24 -39 -63 5 -18 16 -24 55 -29
27 -4 49 -12 49 -18 0 -6 -11 -24 -24 -41 -23 -28 -25 -29 -43 -13 -18 16 -20
16 -48 -2 -36 -23 -45 -18 -45 25 0 21 -6 35 -16 39 -27 10 -33 7 -49 -24 -19
-37 -26 -37 -48 0 -15 24 -21 28 -40 21 -17 -7 -21 -16 -20 -37 5 -50 -3 -56
-40 -34 l-34 20 -18 -20 c-18 -20 -18 -21 3 -49 25 -34 20 -41 -24 -41 -29 0
-44 -13 -44 -41 0 -4 14 -15 30 -24 38 -19 38 -30 0 -50 -24 -13 -28 -19 -21
-38 6 -16 18 -23 45 -25 41 -4 43 -8 20 -41 -15 -21 -15 -24 4 -43 l20 -21 31
22 c34 24 38 21 43 -34 2 -23 9 -31 26 -33 18 -3 26 3 35 27 14 39 28 39 51 0
11 -19 23 -28 33 -25 8 3 19 6 25 6 6 0 8 17 6 40 -4 43 3 47 42 25 22 -12 27
-11 42 2 17 15 17 18 -3 49 -23 37 -20 41 36 46 43 4 47 41 6 58 -39 16 -39
31 -1 53 25 15 28 21 20 41 -8 22 -5 26 31 40 60 24 63 23 56 -37 -7 -52 -6
-53 25 -65 17 -6 32 -11 33 -9 18 29 60 77 67 77 5 0 19 -23 30 -51 18 -42 25
-50 42 -45 12 3 26 6 32 6 6 0 14 22 18 50 4 27 10 51 15 54 4 3 27 -9 50 -26
41 -30 42 -30 64 -12 12 10 24 20 26 21 2 1 -4 20 -13 43 -24 60 -22 62 36 58
50 -3 52 -2 65 29 12 31 12 33 -27 60 -22 15 -40 33 -40 39 0 6 20 19 46 29
43 16 45 19 42 54 -3 35 -4 36 -48 39 -64 5 -69 15 -31 62 31 39 32 40 14 65
-21 29 -34 30 -74 9 -56 -28 -67 -9 -43 78 3 12 -5 20 -31 28 -32 11 -38 10
-50 -6 -7 -11 -22 -30 -33 -44 l-21 -25 -22 50 c-12 28 -23 51 -24 53 -2 2
-19 0 -39 -3 -35 -7 -36 -9 -36 -49 0 -62 -15 -71 -61 -36 -44 36 -50 36 -74
9 -17 -18 -17 -24 -6 -52 27 -67 27 -67 -18 -67 -47 0 -49 6 -21 52 l20 34
-45 44 c-25 24 -45 48 -45 52 0 10 32 24 88 38 41 11 42 12 42 54 l0 43 -55
13 c-83 20 -88 33 -34 85 l46 43 -19 36 c-21 42 -18 41 -87 20 -69 -20 -77
-12 -56 60 18 63 16 70 -27 92 -30 16 -31 16 -72 -25 -57 -56 -69 -54 -85 19
l-13 60 -44 0 c-23 0 -45 -3 -47 -7z m71 -160 c-16 -2 -40 -2 -55 0 -16 2 -3
4 27 4 30 0 43 -2 28 -4z m-128 -17 c0 -2 -7 -7 -16 -10 -8 -3 -12 -2 -9 4 6
10 25 14 25 6z m-70 -39 c0 -2 -15 -16 -32 -33 l-33 -29 29 33 c28 30 36 37
36 29z m284 -31 c127 -75 153 -229 56 -339 -52 -59 -108 -81 -190 -75 -80 6
-134 43 -173 119 -34 67 -37 128 -9 191 55 124 200 172 316 104z m77 17 c13
-16 12 -17 -3 -4 -10 7 -18 15 -18 17 0 8 8 3 21 -13z m67 -88 c-3 -3 -9 2
-12 12 -6 14 -5 15 5 6 7 -7 10 -15 7 -18z m-531 -67 c-3 -8 -6 -5 -6 6 -1 11
2 17 5 13 3 -3 4 -12 1 -19z m560 -75 c-3 -10 -5 -2 -5 17 0 19 2 27 5 18 2
-10 2 -26 0 -35z m-560 -45 c-3 -8 -6 -5 -6 6 -1 11 2 17 5 13 3 -3 4 -12 1
-19z m523 -78 c-6 -11 -13 -20 -16 -20 -2 0 0 9 6 20 6 11 13 20 16 20 2 0 0
-9 -6 -20z m-445 -50 c21 -22 37 -40 34 -40 -3 0 -23 18 -44 40 -21 22 -37 40
-34 40 3 0 23 -18 44 -40z m425 17 c0 -2 -10 -12 -22 -23 l-23 -19 19 23 c18
21 26 27 26 19z m448 -34 c-10 -2 -26 -2 -35 0 -10 3 -2 5 17 5 19 0 27 -2 18
-5z m-148 -36 c0 -2 -15 -16 -32 -33 l-33 -29 29 33 c28 30 36 37 36 29z m207
-26 c62 -29 98 -88 98 -162 -1 -49 -5 -64 -31 -95 -53 -65 -78 -79 -148 -79
-53 0 -69 5 -100 28 -93 71 -102 202 -19 280 52 49 129 60 200 28z m-770 -7
c-3 -3 -12 -4 -19 -1 -8 3 -5 6 6 6 11 1 17 -2 13 -5z m90 0 c-3 -3 -12 -4
-19 -1 -8 3 -5 6 6 6 11 1 17 -2 13 -5z m380 -176 c-2 -13 -4 -3 -4 22 0 25 2
35 4 23 2 -13 2 -33 0 -45z m450 10 c-3 -7 -5 -2 -5 12 0 14 2 19 5 13 2 -7 2
-19 0 -25z m-382 -148 c10 -11 16 -20 13 -20 -3 0 -13 9 -23 20 -10 11 -16 20
-13 20 3 0 13 -9 23 -20z m-317 -27 c-10 -2 -26 -2 -35 0 -10 3 -2 5 17 5 19
0 27 -2 18 -5z m191 -38 c21 -12 11 -25 -19 -25 -33 0 -36 7 -18 45 11 25 12
25 19 7 4 -11 12 -23 18 -27z m-130 -20 c44 -38 57 -86 37 -140 -19 -48 -46
-70 -98 -80 -84 -16 -161 73 -137 159 23 82 132 116 198 61z m424 18 c-7 -2
-21 -2 -30 0 -10 3 -4 5 12 5 17 0 24 -2 18 -5z"/>
<path d="M5560 6729 c-36 -99 -67 -186 -69 -192 -2 -7 22 13 53 43 l56 54 0
-722 0 -722 28 -1 c15 -1 32 -2 37 -4 6 -1 374 -3 820 -3 l809 -2 -54 -56
c-49 -49 -52 -54 -25 -44 17 7 104 39 195 72 91 33 166 61 168 62 1 2 -51 22
-115 46 -65 23 -154 56 -198 72 l-80 29 53 -53 c28 -30 52 -57 52 -61 0 -8
-1592 -10 -1614 -1 -14 6 -16 76 -16 697 l0 691 56 -54 c31 -30 55 -48 52 -40
-24 75 -134 370 -138 370 -3 0 -34 -81 -70 -181z"/>
<path d="M7109 6617 c-46 -31 -61 -63 -55 -117 6 -62 57 -110 119 -110 41 0
79 18 105 50 11 13 13 13 23 -3 15 -25 63 -47 102 -47 24 0 45 10 71 33 31 26
39 40 42 77 12 114 -117 182 -200 105 l-26 -25 -21 21 c-44 44 -109 51 -160
16z m98 -17 c29 -11 63 -55 63 -84 0 -45 -52 -96 -99 -96 -27 0 -79 48 -86 80
-9 42 40 105 86 109 3 1 19 -4 36 -9z"/>
<path d="M6112 6530 c-69 -42 -79 -131 -22 -188 104 -104 271 33 188 154 -39
57 -106 71 -166 34z"/>
<path d="M6612 6530 c-45 -27 -68 -83 -55 -131 9 -34 8 -38 -17 -53 -96 -56
-61 -211 50 -222 54 -6 86 9 117 55 24 36 30 80 13 110 -7 14 -4 21 16 31 32
18 64 70 64 105 0 99 -103 157 -188 105z"/>
<path d="M6981 6352 c-35 -19 -71 -72 -71 -105 0 -36 30 -87 62 -107 51 -31
101 -26 144 13 68 62 51 168 -31 203 -45 18 -63 18 -104 -4z"/>
<path d="M7371 6292 c-37 -20 -71 -73 -71 -110 0 -13 8 -40 17 -59 20 -43 89
-79 131 -68 45 11 91 53 103 94 10 32 8 45 -9 83 -31 71 -103 96 -171 60z
m110 -35 c47 -36 51 -97 10 -138 -37 -37 -79 -38 -120 -3 -63 53 -25 154 58
154 20 0 43 -6 52 -13z"/>
<path d="M6375 6041 c-96 -44 -99 -177 -6 -226 81 -41 181 18 181 107 0 100
-88 160 -175 119z m94 -35 c29 -15 51 -53 51 -87 0 -11 -13 -34 -29 -50 -50
-50 -124 -35 -150 30 -11 24 -10 35 4 64 25 53 72 69 124 43z"/>
<path d="M5874 6017 c-68 -62 -52 -162 32 -202 47 -22 94 -13 133 26 56 56 50
136 -14 185 -48 36 -105 33 -151 -9z"/>
<path d="M7180 5674 c-89 -31 -126 -117 -80 -191 48 -79 150 -82 209 -7 39 49
18 154 -36 182 -25 13 -75 22 -93 16z m69 -49 c56 -29 63 -106 14 -145 -49
-39 -118 -20 -142 39 -11 24 -10 35 4 64 25 53 72 69 124 42z"/>
<path d="M10230 6900 c0 -5 -29 -89 -65 -185 -36 -97 -65 -179 -65 -183 0 -3
25 18 55 48 l55 54 0 -721 0 -721 23 -5 c12 -4 391 -6 842 -6 451 -1 822 -1
825 -1 2 0 -20 -24 -49 -54 l-54 -54 174 63 c96 35 185 67 197 72 20 8 4 16
-110 57 -73 27 -162 60 -198 73 l-65 24 53 -54 c51 -52 53 -55 30 -60 -30 -8
-1571 -9 -1592 -1 -14 6 -16 71 -16 697 l0 691 56 -54 c31 -30 55 -50 53 -43
-28 86 -136 373 -141 373 -5 0 -8 -4 -8 -10z"/>
<path d="M11862 6636 c-34 -31 -37 -39 -37 -86 0 -47 3 -55 37 -86 32 -29 45
-34 86 -34 38 0 55 5 76 25 46 43 57 94 31 149 -20 41 -63 66 -114 66 -33 0
-49 -7 -79 -34z"/>
<path d="M11082 6375 c-61 -51 -66 -129 -12 -183 57 -58 147 -47 190 23 24 38
25 75 5 115 -37 72 -125 94 -183 45z"/>
<path d="M11519 6383 c-30 -18 -59 -71 -59 -106 0 -36 34 -89 71 -109 57 -31
122 -10 160 51 23 38 24 70 3 114 -30 63 -116 87 -175 50z"/>
<path d="M10383 6320 c-61 -37 -79 -108 -43 -168 41 -68 133 -78 189 -21 38
38 48 84 27 132 -28 69 -110 96 -173 57z"/>
<path d="M11908 6322 c-32 -19 -58 -68 -58 -109 0 -38 32 -89 69 -108 116 -60
234 73 163 183 -33 50 -121 68 -174 34z m111 -26 c68 -36 65 -128 -6 -161 -62
-30 -123 13 -123 86 0 29 7 43 31 63 35 29 58 32 98 12z"/>
<path d="M12290 6283 c-41 -21 -80 -76 -80 -112 0 -14 7 -38 14 -53 14 -26 13
-28 -5 -28 -57 0 -119 -66 -119 -128 0 -51 25 -88 75 -112 45 -22 47 -22 90
-5 73 27 103 103 71 176 -6 13 0 18 28 23 78 15 124 104 89 173 -34 68 -103
96 -163 66z m111 -52 c60 -60 22 -150 -64 -151 -82 0 -119 101 -56 154 41 35
83 34 120 -3z m-118 -201 c49 -39 42 -116 -14 -145 -49 -26 -94 -13 -123 36
-49 82 60 169 137 109z"/>
<path d="M10453 6076 c-38 -17 -73 -69 -73 -108 0 -68 56 -128 120 -128 63 0
130 65 130 126 0 27 -30 82 -54 98 -35 23 -87 28 -123 12z"/>
<path d="M11133 6070 c-90 -55 -80 -185 18 -224 147 -59 240 156 99 229 -39
20 -79 19 -117 -5z m124 -42 c45 -49 36 -115 -18 -143 -52 -27 -99 -11 -124
42 -30 62 13 123 85 123 25 0 43 -7 57 -22z"/>
<path d="M11133 5690 c-60 -36 -80 -113 -46 -171 10 -16 37 -39 61 -50 42 -21
44 -21 88 -4 54 21 84 63 84 118 0 99 -103 158 -187 107z m103 -26 c47 -22 64
-74 39 -120 -31 -58 -101 -69 -144 -23 -43 46 -34 105 21 139 40 24 41 24 84
4z"/>
<path d="M11704 5700 c-39 -15 -74 -68 -74 -111 0 -59 24 -98 75 -120 42 -19
50 -18 107 3 35 13 68 66 68 108 0 92 -91 154 -176 120z m94 -40 c55 -34 64
-93 21 -139 -26 -28 -63 -36 -100 -21 -60 25 -74 104 -26 147 40 37 61 40 105
13z"/>
<path d="M7285 1944 c-37 -104 -70 -195 -73 -201 -3 -10 11 -13 52 -13 l56 0
0 -642 c0 -354 3 -653 6 -666 l6 -22 1214 0 1213 0 3 -59 3 -59 197 71 c109
40 194 75 190 78 -8 7 -374 139 -384 139 -5 0 -8 -25 -8 -55 l0 -55 -1190 0
-1190 0 0 635 0 635 60 0 59 0 -38 108 c-22 59 -54 149 -73 201 l-34 94 -69
-189z m66 -21 c-8 -15 -10 -15 -11 -2 0 17 10 32 18 25 2 -3 -1 -13 -7 -23z
m33 -53 c5 -17 4 -20 -2 -10 -5 8 -13 26 -16 40 -5 17 -4 20 2 10 5 -8 13 -26
16 -40z m-53 3 c-12 -20 -14 -14 -5 12 4 9 9 14 11 11 3 -2 0 -13 -6 -23z m79
-70 c0 -9 -18 -13 -55 -13 -46 0 -55 3 -54 18 0 10 3 12 6 5 3 -8 23 -13 50
-13 41 0 44 2 38 23 -5 17 -4 19 4 7 6 -8 11 -21 11 -27z m2422 -1390 c2 -24
0 -43 -4 -43 -5 0 -7 26 -7 58 1 61 6 55 11 -15z m68 47 c18 -12 2 -12 -25 0
-13 6 -15 9 -5 9 8 0 22 -4 30 -9z m75 -38 c-3 -3 -11 0 -18 7 -9 10 -8 11 6
5 10 -3 15 -9 12 -12z m-35 -11 c-8 -5 -26 -11 -40 -15 -21 -5 -20 -3 5 9 32
15 60 20 35 6z"/>
<path d="M8089 1775 c-37 -20 -59 -58 -61 -104 -3 -89 87 -149 178 -117 17 6
22 3 27 -14 4 -17 -4 -31 -34 -59 -33 -32 -39 -44 -39 -80 0 -78 48 -131 120
-131 75 0 124 57 119 139 -3 42 0 49 34 82 61 60 49 150 -25 194 -29 17 -78
17 -120 0 -13 -5 -18 -2 -18 9 0 26 -30 65 -61 82 -35 18 -86 17 -120 -1z"/>
<path d="M8783 1769 c-41 -26 -67 -81 -59 -125 13 -67 87 -121 148 -107 13 3
40 18 60 34 28 22 39 26 45 16 28 -46 107 -61 156 -28 41 27 58 56 59 102 1
50 -24 87 -75 112 -44 22 -85 16 -127 -19 l-29 -25 -21 21 c-44 44 -106 52
-157 19z m98 -19 c23 0 59 -54 59 -87 0 -46 -46 -93 -90 -93 -70 0 -115 92
-72 147 19 25 60 44 80 37 8 -2 18 -4 23 -4z"/>
<path d="M7787 1681 c-61 -40 -77 -94 -47 -156 34 -70 105 -93 167 -55 61 37
80 95 52 161 -25 61 -116 88 -172 50z"/>
<path d="M8661 1503 c-50 -26 -75 -64 -73 -113 5 -123 159 -166 223 -63 65
104 -44 231 -150 176z"/>
<path d="M7536 1449 c-66 -18 -107 -91 -86 -154 34 -102 177 -117 226 -24 49
97 -36 205 -140 178z"/>
<path d="M9054 1446 c-37 -17 -70 -57 -79 -97 -8 -37 19 -95 58 -123 35 -26
102 -27 139 -2 30 19 58 72 58 108 0 37 -34 90 -71 110 -40 21 -63 22 -105 4z
m110 -52 c56 -56 17 -154 -61 -154 -46 0 -93 45 -93 90 0 22 9 41 29 61 39 38
88 40 125 3z"/>
<path d="M9403 1390 c-18 -10 -40 -31 -49 -45 -19 -29 -22 -101 -5 -118 19
-19 13 -27 -20 -27 -40 0 -95 -53 -104 -102 -13 -71 48 -148 118 -148 42 0 91
24 111 55 20 30 26 87 13 122 -7 19 -4 23 20 29 120 29 139 193 28 240 -46 19
-74 18 -112 -6z m109 -31 c11 -6 26 -26 34 -45 13 -31 13 -39 -1 -68 -35 -73
-126 -73 -164 1 -18 35 -13 63 18 94 31 31 75 38 113 18z m-122 -204 c103 -53
32 -205 -75 -161 -72 30 -76 123 -7 160 35 19 46 19 82 1z"/>
<path d="M7564 1181 c-17 -10 -39 -36 -48 -56 -47 -97 60 -206 157 -160 49 23
68 47 74 96 14 102 -95 174 -183 120z"/>
<path d="M8032 1180 c-32 -20 -62 -71 -62 -106 0 -31 34 -87 64 -105 54 -33
123 -21 164 30 12 15 14 14 23 -2 26 -45 112 -60 165 -28 72 44 80 139 17 199
-44 41 -102 44 -157 7 l-36 -24 -36 24 c-45 31 -97 32 -142 5z m108 -25 c103
-53 32 -205 -75 -161 -54 23 -73 86 -39 134 28 41 69 50 114 27z m248 -21 c58
-67 -13 -172 -97 -143 -56 20 -79 89 -45 137 34 48 102 51 142 6z"/>
<path d="M8539 1183 c-62 -38 -79 -128 -34 -181 54 -64 131 -67 184 -6 29 33
36 54 33 99 -7 81 -113 132 -183 88z"/>
<path d="M8285 818 c-119 -41 -122 -204 -4 -239 107 -33 203 74 152 170 -32
60 -91 88 -148 69z m103 -64 c42 -48 20 -120 -44 -144 -49 -19 -114 28 -114
83 0 87 101 126 158 61z"/>
<path d="M8843 819 c-68 -19 -108 -105 -79 -172 37 -90 164 -102 221 -20 65
93 -30 223 -142 192z m105 -65 c39 -45 23 -112 -34 -139 -82 -38 -160 59 -108
133 34 48 102 51 142 6z"/>
<path d="M1635 10907 c-83 -33 -146 -89 -186 -167 l-24 -45 -3 -795 c-3 -918
-9 -852 93 -956 96 -97 99 -98 498 -102 185 -2 337 -7 337 -11 0 -4 -29 -89
-65 -189 -36 -101 -65 -185 -65 -187 0 -3 24 -5 54 -5 52 0 54 -1 60 -31 3
-17 6 -285 6 -595 l0 -564 -764 0 c-662 0 -767 -2 -779 -15 -9 -8 -65 -162
-125 -342 -109 -325 -263 -782 -526 -1560 -75 -221 -136 -410 -136 -420 0 -11
5 -24 12 -31 18 -18 3127 -17 3150 0 8 7 50 114 91 238 42 124 181 533 308
910 127 377 266 791 310 920 43 129 79 244 79 257 0 12 -9 27 -19 33 -13 7
-275 10 -780 10 l-761 0 0 293 c0 162 -3 429 -7 595 l-6 302 56 0 c45 0 57 3
57 15 0 9 -29 95 -65 191 -36 97 -65 177 -65 180 0 2 139 4 310 4 319 0 382 6
453 42 58 29 124 104 147 166 20 52 20 71 18 850 l-3 797 -25 49 c-33 64 -85
117 -146 147 l-49 24 -705 2 c-524 1 -713 -1 -735 -10z m1460 -35 c58 -27 119
-82 145 -132 39 -76 41 -127 38 -895 l-3 -740 -26 -55 c-34 -70 -80 -116 -149
-149 l-55 -26 -685 0 -685 0 -53 24 c-31 14 -70 43 -96 72 -80 89 -77 46 -76
915 0 557 3 781 12 805 35 102 119 178 221 199 23 4 339 7 702 7 l660 -2 50
-23z m-733 -2224 c-7 -7 -12 -8 -12 -2 0 14 12 26 19 19 2 -3 -1 -11 -7 -17z
m28 -43 c0 -5 -5 -3 -10 5 -5 8 -10 20 -10 25 0 6 5 3 10 -5 5 -8 10 -19 10
-25z m-66 -61 c-7 -26 -6 -26 45 -23 28 2 51 1 51 -3 0 -5 -25 -8 -55 -8 -56
0 -63 6 -49 44 10 25 15 18 8 -10z m1526 -1382 c0 -5 -60 -186 -134 -403 -73
-217 -198 -585 -277 -819 -79 -234 -184 -546 -235 -695 l-91 -270 -1497 -3
c-823 -1 -1496 -1 -1496 1 0 2 117 352 261 778 143 426 308 914 365 1084 57
171 106 316 109 323 3 9 313 12 1500 12 822 0 1495 -4 1495 -8z"/>
<path d="M2036 10603 c-3 -10 -10 -37 -16 -59 -5 -23 -16 -44 -24 -47 -7 -3
-32 14 -56 38 l-43 44 -37 -20 -36 -21 15 -59 c20 -75 12 -84 -55 -64 -66 20
-67 20 -88 -20 l-20 -36 42 -42 c23 -24 42 -48 42 -54 0 -7 -27 -20 -60 -29
l-61 -17 3 -46 3 -45 58 -14 c31 -8 57 -20 57 -26 0 -7 -18 -30 -40 -51 -22
-21 -40 -44 -40 -50 0 -5 9 -24 19 -42 l20 -32 60 19 c77 23 84 16 61 -61
l-19 -60 32 -20 c44 -26 51 -25 87 21 17 22 40 40 50 40 19 0 21 -3 40 -77 11
-42 11 -43 55 -43 l44 0 13 60 c15 73 26 75 85 18 l43 -42 35 18 c40 22 40 25
20 92 -8 27 -11 52 -6 57 5 5 33 4 64 -3 48 -11 54 -15 41 -27 -8 -8 -15 -21
-15 -29 -1 -8 -2 -18 -3 -23 -1 -5 16 -22 36 -38 20 -16 33 -34 30 -40 -4 -6
-26 -19 -50 -28 -43 -18 -46 -23 -36 -62 5 -18 16 -24 55 -29 27 -4 49 -11 49
-17 0 -5 -10 -25 -21 -44 l-21 -34 -22 20 c-21 20 -22 20 -51 1 -36 -23 -45
-18 -45 25 0 21 -6 35 -16 39 -26 10 -31 7 -44 -24 -7 -16 -18 -30 -25 -30 -7
0 -18 14 -25 30 -14 34 -11 33 -45 20 -23 -9 -26 -14 -20 -40 10 -44 -1 -52
-37 -30 -50 30 -78 -7 -43 -56 18 -26 11 -34 -32 -34 -18 0 -33 -4 -33 -9 0
-5 -2 -16 -6 -24 -3 -9 6 -19 25 -27 38 -15 39 -28 5 -55 -38 -30 -26 -65 22
-65 39 0 39 -1 19 -39 -13 -26 -13 -30 5 -46 18 -16 20 -16 50 5 33 23 37 20
42 -35 4 -44 41 -47 63 -6 20 39 30 39 50 0 11 -20 21 -29 31 -25 9 3 20 6 26
6 6 0 8 17 6 40 -4 44 0 47 41 25 26 -13 30 -13 46 5 16 17 16 21 1 42 -25 35
-20 46 22 50 29 2 38 8 40 24 2 16 -5 25 -27 34 -39 16 -39 30 -1 52 26 15 29
20 21 42 -9 22 -6 26 30 40 60 24 63 23 56 -37 -7 -52 -6 -53 26 -65 30 -12
33 -11 59 20 15 18 28 36 28 41 0 4 5 7 11 7 5 0 20 -23 31 -50 20 -49 22 -51
52 -44 38 8 46 19 46 66 0 48 17 52 62 15 38 -30 38 -30 60 -11 13 10 25 20
27 21 2 1 -4 20 -13 43 -24 61 -23 64 38 57 54 -5 55 -5 66 26 10 30 9 34 -22
60 -18 15 -36 27 -40 27 -4 0 -8 6 -8 14 0 11 21 22 60 30 29 7 38 23 31 56
-6 33 -9 35 -51 38 -64 5 -69 15 -32 61 18 22 32 42 32 44 0 2 -9 15 -20 27
-19 22 -23 23 -53 11 -59 -24 -72 -21 -69 19 2 19 5 42 8 51 3 11 -6 21 -27
30 -32 13 -33 12 -71 -31 l-38 -45 -22 53 c-21 51 -24 53 -52 48 -37 -8 -46
-21 -46 -68 0 -47 -16 -52 -61 -17 -44 34 -50 35 -74 8 -17 -18 -17 -24 -6
-52 27 -67 27 -67 -18 -67 -22 0 -41 2 -41 5 0 3 9 23 20 44 l19 39 -39 41
c-22 23 -40 48 -40 56 0 8 17 19 43 25 23 6 50 13 60 16 13 4 17 16 17 47 l0
43 -60 17 c-33 10 -60 23 -60 30 0 6 19 30 41 53 l41 42 -22 39 -22 40 -60
-20 c-76 -25 -84 -17 -63 57 18 63 16 70 -28 92 l-31 17 -37 -42 c-53 -59 -72
-55 -88 19 l-13 60 -44 0 c-32 0 -44 -4 -48 -17z m72 -150 c-16 -2 -40 -2 -55
0 -16 2 -3 4 27 4 30 0 43 -2 28 -4z m-128 -17 c0 -2 -7 -7 -16 -10 -8 -3 -12
-2 -9 4 6 10 25 14 25 6z m250 -22 c0 -2 -9 0 -20 6 -11 6 -20 13 -20 16 0 2
9 0 20 -6 11 -6 20 -13 20 -16z m-320 -17 c0 -2 -12 -14 -27 -28 l-28 -24 24
28 c23 25 31 32 31 24z m278 -26 c159 -81 158 -316 0 -395 -117 -58 -246 -17
-302 96 -98 197 106 399 302 299z m150 -76 c-3 -3 -9 2 -12 12 -6 14 -5 15 5
6 7 -7 10 -15 7 -18z m-531 -147 c-2 -18 -4 -6 -4 27 0 33 2 48 4 33 2 -15 2
-42 0 -60z m560 5 c-3 -10 -5 -2 -5 17 0 19 2 27 5 18 2 -10 2 -26 0 -35z
m-37 -123 c-6 -11 -13 -20 -16 -20 -2 0 0 9 6 20 6 11 13 20 16 20 2 0 0 -9
-6 -20z m-440 -55 c19 -19 32 -35 29 -35 -3 0 -20 16 -39 35 -19 19 -32 35
-29 35 3 0 20 -16 39 -35z m420 22 c0 -2 -15 -16 -32 -33 l-33 -29 29 33 c28
30 36 37 36 29z m448 -34 c-10 -2 -26 -2 -35 0 -10 3 -2 5 17 5 19 0 27 -2 18
-5z m-158 -46 c0 -2 -12 -14 -27 -28 l-28 -24 24 28 c23 25 31 32 31 24z m247
-33 c49 -37 77 -104 69 -163 -20 -146 -183 -209 -295 -115 -53 44 -75 135 -50
201 39 104 187 145 276 77z m54 19 c13 -16 12 -17 -3 -4 -10 7 -18 15 -18 17
0 8 8 3 21 -13z m-844 -9 c-3 -3 -12 -4 -19 -1 -8 3 -5 6 6 6 11 1 17 -2 13
-5z m80 0 c-3 -3 -12 -4 -19 -1 -8 3 -5 6 6 6 11 1 17 -2 13 -5z m380 -176
c-2 -13 -4 -3 -4 22 0 25 2 35 4 23 2 -13 2 -33 0 -45z m450 10 c-3 -7 -5 -2
-5 12 0 14 2 19 5 13 2 -7 2 -19 0 -25z m-382 -148 c10 -11 16 -20 13 -20 -3
0 -13 9 -23 20 -10 11 -16 20 -13 20 3 0 13 -9 23 -20z m-317 -27 c-10 -2 -26
-2 -35 0 -10 3 -2 5 17 5 19 0 27 -2 18 -5z m202 -54 c0 -12 -47 -11 -55 1 -3
5 0 19 7 30 l13 21 18 -22 c9 -12 17 -25 17 -30z m-141 -5 c17 -14 36 -42 42
-63 25 -83 -53 -172 -137 -157 -97 19 -141 137 -77 209 41 45 125 51 172 11z
m424 19 c-7 -2 -21 -2 -30 0 -10 3 -4 5 12 5 17 0 24 -2 18 -5z"/>
<path d="M993 6848 c-11 -35 -42 -121 -67 -193 l-47 -130 55 55 56 54 0 -716
c0 -563 3 -719 13 -725 8 -6 1409 -17 1672 -13 5 0 -15 -25 -45 -56 -49 -49
-52 -54 -25 -44 17 6 104 39 195 72 91 33 166 61 168 63 1 1 -42 18 -95 38
-54 19 -143 52 -198 72 l-100 36 53 -53 c28 -30 52 -57 52 -61 0 -8 -1593 -9
-1615 -1 -13 5 -15 87 -15 688 0 376 3 685 6 688 3 3 26 -16 51 -43 25 -27 48
-47 50 -45 6 6 -130 376 -137 376 -3 0 -15 -28 -27 -62z"/>
<path d="M1756 6619 c-31 -24 -56 -69 -56 -99 0 -36 29 -85 61 -104 22 -13 45
-17 86 -14 49 3 57 0 63 -18 7 -16 2 -24 -20 -37 -31 -18 -60 -72 -60 -110 0
-31 38 -88 70 -105 39 -20 107 -9 141 24 33 31 47 85 32 125 -9 23 -7 28 18
43 60 35 75 121 33 180 -25 35 -85 53 -133 40 -35 -10 -37 -9 -53 26 -33 67
-126 93 -182 49z"/>
<path d="M2444 6607 c-87 -80 -35 -217 83 -217 38 0 80 21 96 47 6 10 16 8 42
-12 66 -51 144 -39 185 28 25 41 25 83 0 125 -40 65 -129 78 -186 26 -23 -22
-29 -24 -38 -12 -23 30 -62 48 -103 48 -35 0 -50 -6 -79 -33z m149 -38 c37
-40 35 -73 -7 -115 -51 -51 -111 -41 -141 23 -17 36 -13 66 14 97 38 44 90 42
134 -5z"/>
<path d="M1225 6303 c-57 -11 -105 -65 -105 -118 0 -132 174 -173 235 -55 19
37 19 64 -1 106 -22 46 -80 75 -129 67z"/>
<path d="M1725 6041 c-71 -32 -95 -112 -55 -178 44 -73 146 -83 199 -19 12 14
17 13 43 -9 16 -14 40 -28 54 -31 74 -19 154 42 154 117 0 124 -134 179 -217
90 -18 -19 -21 -20 -27 -6 -5 15 -79 55 -101 55 -5 0 -28 -9 -50 -19z m94 -36
c56 -29 63 -106 14 -145 -49 -39 -118 -20 -142 39 -11 24 -10 35 4 64 25 53
72 69 124 42z m220 0 c80 -41 50 -165 -39 -165 -43 0 -73 19 -89 59 -11 24
-10 35 4 64 25 53 72 69 124 42z"/>
<path d="M2975 6041 c-96 -44 -99 -177 -6 -226 81 -41 181 18 181 107 0 100
-88 160 -175 119z m101 -39 c51 -41 54 -105 7 -142 -49 -39 -118 -20 -142 39
-32 76 71 155 135 103z"/>
<path d="M2201 6021 c-61 -57 -64 -125 -8 -178 17 -17 46 -34 64 -38 69 -14
143 53 143 130 0 30 -8 45 -39 76 -33 34 -45 39 -84 39 -36 0 -51 -6 -76 -29z"/>
<path d="M1945 5661 c-96 -44 -99 -177 -6 -226 81 -41 181 18 181 107 0 100
-88 160 -175 119z m94 -36 c56 -29 63 -106 14 -145 -50 -39 -118 -20 -143 41
-12 27 -11 36 4 64 28 52 74 67 125 40z"/>
<path d="M15456 10904 c-74 -27 -142 -89 -179 -164 l-22 -45 0 -815 0 -815 22
-41 c27 -50 96 -120 142 -144 69 -34 135 -40 452 -40 l310 0 -7 -22 c-3 -13
-33 -97 -65 -187 -33 -90 -59 -168 -59 -173 0 -4 24 -8 53 -8 l54 0 6 -292 c4
-161 7 -429 7 -595 l0 -303 -763 0 c-595 0 -767 -3 -780 -12 -9 -8 -72 -179
-148 -403 -159 -474 -367 -1092 -523 -1555 -64 -189 -116 -354 -116 -365 0
-12 5 -26 12 -33 9 -9 373 -12 1574 -12 1352 0 1565 2 1577 15 8 7 42 96 75
197 34 101 106 316 161 478 413 1222 551 1634 551 1645 0 8 -7 21 -16 29 -14
14 -98 16 -778 16 l-763 0 -6 338 c-4 185 -7 453 -7 595 l0 257 49 0 c28 0 53
4 56 10 3 5 -23 89 -59 186 -36 97 -66 180 -66 185 0 5 139 9 313 9 347 0 392
6 475 61 60 40 89 77 119 150 l23 58 -2 793 -3 793 -27 50 c-33 63 -87 117
-147 147 l-46 23 -705 2 c-593 1 -711 0 -744 -13z m1455 -27 c82 -32 148 -101
177 -186 9 -24 12 -248 12 -805 1 -869 4 -826 -76 -915 -26 -29 -65 -58 -96
-72 l-53 -24 -685 0 -685 0 -55 26 c-70 33 -116 79 -149 149 l-26 55 0 775 c0
738 1 777 19 824 34 89 119 163 213 185 21 5 332 9 698 8 604 -2 664 -4 706
-20z m-706 -2255 c-3 -3 -5 0 -5 6 0 23 -18 12 -24 -14 -4 -15 -9 -24 -12 -21
-3 3 2 22 11 43 16 38 17 38 26 15 5 -13 7 -26 4 -29z m35 -77 c0 -5 -5 -3
-10 5 -5 8 -10 20 -10 25 0 6 5 3 10 -5 5 -8 10 -19 10 -25z m10 -25 c0 -6
-26 -9 -62 -8 l-63 1 60 7 c33 4 61 7 63 8 1 1 2 -2 2 -8z m1430 -1353 c0 -2
-90 -271 -201 -598 -110 -326 -213 -632 -229 -679 -67 -202 -299 -887 -305
-902 -7 -17 -88 -18 -1501 -18 -822 0 -1494 4 -1494 8 0 8 43 136 418 1247
252 748 299 886 313 923 l9 22 1495 0 c822 0 1495 -1 1495 -3z"/>
<path d="M15867 10613 c-2 -5 -10 -32 -17 -60 -15 -66 -30 -67 -86 -12 l-42
42 -37 -23 c-24 -15 -34 -27 -30 -37 17 -46 27 -105 18 -114 -6 -6 -28 -4 -59
6 -67 20 -67 20 -91 -21 l-20 -36 43 -40 c24 -22 44 -46 44 -53 0 -8 -28 -22
-62 -32 l-63 -18 -3 -42 c-3 -46 -9 -42 101 -69 37 -9 34 -23 -18 -74 -46 -46
-47 -56 -8 -101 13 -16 18 -16 73 1 56 17 60 17 65 1 3 -10 -2 -39 -10 -67
l-15 -49 27 -22 c39 -32 57 -29 93 17 46 59 66 54 81 -20 l12 -60 48 0 48 0
13 60 c15 73 26 75 85 18 l42 -42 36 20 c40 21 41 25 20 84 -8 24 -13 51 -10
60 5 16 10 16 59 2 l54 -15 -16 -34 -17 -35 38 -30 c20 -16 37 -36 37 -43 0
-7 -20 -20 -45 -29 -46 -18 -49 -24 -39 -63 5 -18 16 -24 55 -29 27 -4 49 -12
49 -18 0 -6 -11 -24 -24 -41 -23 -28 -25 -29 -43 -13 -18 16 -20 16 -48 -2
-36 -23 -45 -18 -45 25 0 21 -6 35 -16 39 -27 10 -33 7 -49 -24 -19 -37 -26
-37 -48 0 -15 24 -21 28 -40 21 -17 -7 -21 -16 -20 -37 5 -50 -3 -56 -41 -35
-34 19 -34 19 -51 1 -16 -18 -16 -21 -1 -44 24 -37 20 -46 -18 -46 -22 0 -36
-6 -40 -16 -10 -27 -7 -33 24 -49 38 -19 38 -30 0 -50 -24 -13 -28 -19 -21
-38 6 -16 18 -23 45 -25 41 -4 43 -8 20 -40 -15 -21 -15 -25 2 -43 17 -19 18
-19 51 1 37 21 40 19 45 -35 2 -23 9 -31 26 -33 18 -3 26 3 35 27 15 39 31 39
47 0 8 -19 18 -28 27 -25 8 4 21 6 30 6 12 0 14 9 11 40 -4 44 0 47 41 25 26
-13 30 -13 44 3 15 16 15 20 -3 47 -23 36 -18 45 26 45 19 0 34 4 34 9 0 5 2
16 6 24 3 9 -6 19 -25 27 -38 15 -39 32 -5 50 20 11 25 20 22 42 -4 24 0 29
34 43 59 23 62 21 55 -38 -7 -52 -6 -53 25 -65 17 -6 32 -11 33 -9 17 27 60
77 66 77 5 0 18 -23 30 -51 19 -42 25 -50 43 -45 12 3 26 6 32 6 6 0 14 22 18
50 4 27 10 52 15 54 5 3 25 -8 46 -24 37 -29 38 -29 66 -13 34 20 35 22 10 73
-23 47 -17 53 46 48 44 -3 47 -1 60 29 12 31 12 33 -27 60 -22 15 -40 33 -40
39 0 6 20 19 46 29 43 16 45 19 42 54 -3 35 -4 36 -48 39 -64 5 -69 15 -31 62
31 39 32 40 14 65 -21 29 -34 30 -74 9 -44 -23 -54 -14 -54 46 0 49 -2 54 -28
63 -23 7 -31 6 -42 -9 -7 -11 -22 -30 -33 -44 l-20 -24 -26 53 c-23 45 -31 52
-49 47 -12 -3 -28 -6 -34 -6 -9 0 -13 -15 -13 -43 0 -63 -15 -72 -61 -37 -44
36 -46 36 -75 9 -22 -21 -22 -21 -4 -64 10 -24 16 -46 13 -49 -10 -10 -73 -7
-73 3 0 6 9 25 20 43 l20 34 -45 44 c-25 24 -45 48 -45 52 0 10 32 24 88 38
43 11 43 11 40 53 -3 41 -4 42 -55 57 -82 25 -86 34 -32 85 l46 43 -19 36
c-21 42 -18 41 -87 20 -71 -21 -80 -11 -58 59 9 30 17 56 17 60 0 3 -16 15
-36 27 l-36 23 -42 -42 c-57 -56 -69 -54 -85 19 l-13 60 -44 0 c-23 0 -45 -3
-47 -7z m71 -160 c-16 -2 -40 -2 -55 0 -16 2 -3 4 27 4 30 0 43 -2 28 -4z
m-128 -17 c0 -2 -7 -7 -16 -10 -8 -3 -12 -2 -9 4 6 10 25 14 25 6z m-70 -39
c0 -2 -15 -16 -32 -33 l-33 -29 29 33 c28 30 36 37 36 29z m243 -11 c92 -33
148 -112 149 -208 1 -131 -92 -227 -220 -228 -129 0 -223 95 -223 226 0 66 20
114 67 158 63 60 149 79 227 52z m133 -18 l29 -33 -32 29 c-18 17 -33 31 -33
33 0 8 8 1 36 -29z m53 -72 c-3 -3 -11 5 -18 17 -13 21 -12 21 5 5 10 -10 16
-20 13 -22z m-532 -68 c-3 -8 -6 -5 -6 6 -1 11 2 17 5 13 3 -3 4 -12 1 -19z
m560 -75 c-3 -10 -5 -2 -5 17 0 19 2 27 5 18 2 -10 2 -26 0 -35z m-560 -45
c-3 -8 -6 -5 -6 6 -1 11 2 17 5 13 3 -3 4 -12 1 -19z m951 -145 c-10 -2 -28
-2 -40 0 -13 2 -5 4 17 4 22 1 32 -1 23 -4z m-148 -36 c0 -2 -15 -16 -32 -33
l-33 -29 29 33 c28 30 36 37 36 29z m206 -26 c88 -40 124 -157 76 -247 -19
-36 -80 -83 -117 -90 -171 -32 -285 173 -167 300 54 57 133 71 208 37z m-769
-7 c-3 -3 -12 -4 -19 -1 -8 3 -5 6 6 6 11 1 17 -2 13 -5z m90 0 c-3 -3 -12 -4
-19 -1 -8 3 -5 6 6 6 11 1 17 -2 13 -5z m830 -166 c-3 -7 -5 -2 -5 12 0 14 2
19 5 13 2 -7 2 -19 0 -25z m-16 -65 c-12 -20 -14 -14 -5 12 4 9 9 14 11 11 3
-2 0 -13 -6 -23z m-366 -83 c10 -11 16 -20 13 -20 -3 0 -13 9 -23 20 -10 11
-16 20 -13 20 3 0 13 -9 23 -20z m-317 -27 c-10 -2 -26 -2 -35 0 -10 3 -2 5
17 5 19 0 27 -2 18 -5z m191 -38 c21 -12 11 -25 -19 -25 -33 0 -36 7 -18 45
11 25 12 25 19 7 4 -11 12 -23 18 -27z m-130 -21 c17 -14 36 -42 42 -63 10
-32 8 -45 -9 -83 -16 -38 -27 -48 -65 -63 -54 -20 -83 -15 -126 21 -59 49 -59
139 0 188 43 36 115 36 158 0z m424 19 c-7 -2 -21 -2 -30 0 -10 3 -4 5 12 5
17 0 24 -2 18 -5z"/>
<path d="M14780 6733 c-34 -98 -65 -185 -68 -193 -3 -8 21 10 52 40 l56 54 0
-720 0 -721 110 -7 c61 -3 438 -6 838 -6 400 0 731 0 737 0 5 0 -13 -22 -40
-50 -27 -27 -47 -50 -43 -50 6 0 371 131 375 134 2 1 -64 26 -145 55 -81 30
-169 62 -197 73 l-50 19 53 -53 c29 -30 50 -57 46 -61 -9 -8 -1479 -9 -1561
-1 l-63 7 0 691 0 690 56 -54 c31 -30 55 -50 53 -43 -22 69 -135 373 -139 373
-3 0 -35 -80 -70 -177z"/>
<path d="M16515 6648 c-68 -63 -54 -158 29 -197 35 -17 48 -19 79 -10 88 24
124 128 69 195 -26 31 -56 44 -101 44 -33 0 -49 -7 -76 -32z"/>
<path d="M15323 6584 c-122 -61 -77 -234 61 -234 55 0 116 64 116 122 0 37
-34 90 -71 110 -41 22 -64 22 -106 2z"/>
<path d="M15823 6584 c-51 -26 -77 -75 -70 -135 6 -46 4 -51 -18 -61 -28 -13
-55 -64 -55 -105 0 -68 76 -130 144 -118 68 13 116 87 101 155 -6 25 -1 35 28
63 44 41 56 91 32 140 -30 65 -103 91 -162 61z"/>
<path d="M16158 6380 c-39 -32 -56 -79 -44 -123 9 -37 61 -85 100 -92 93 -18
175 90 132 173 -40 77 -123 96 -188 42z"/>
<path d="M15044 6340 c-70 -28 -97 -131 -49 -188 52 -62 129 -66 184 -10 37
38 46 73 29 123 -22 66 -99 102 -164 75z"/>
<path d="M16558 6332 c-58 -35 -74 -116 -35 -173 39 -58 98 -74 161 -44 85 40
89 177 6 220 -38 20 -98 19 -132 -3z m111 -26 c28 -15 51 -53 51 -86 0 -11
-13 -34 -29 -52 -49 -55 -121 -40 -151 32 -10 23 -9 35 5 63 25 53 72 69 124
43z"/>
<path d="M15564 6081 c-44 -27 -64 -59 -64 -104 0 -67 37 -115 102 -131 33 -8
105 19 118 44 9 17 12 16 40 -10 41 -38 84 -45 134 -20 95 45 103 159 17 217
-52 35 -105 29 -157 -19 -19 -17 -22 -17 -34 -3 -38 45 -106 57 -156 26z m131
-51 c9 -10 17 -35 18 -56 1 -29 -5 -42 -31 -65 -35 -32 -57 -35 -97 -17 -28
13 -55 55 -55 85 0 28 29 64 63 78 35 15 75 5 102 -25z m208 10 c33 -27 41
-63 22 -104 -15 -32 -50 -56 -81 -56 -29 0 -71 29 -83 58 -24 59 19 122 84
122 18 0 44 -9 58 -20z"/>
<path d="M16070 6082 c-78 -41 -89 -137 -23 -199 38 -36 87 -44 133 -20 33 17
70 74 70 109 0 90 -101 152 -180 110z"/>
<path d="M16354 5710 c-36 -14 -74 -73 -74 -114 0 -55 25 -95 74 -117 49 -21
96 -14 135 22 101 94 -7 261 -135 209z m81 -34 c47 -20 70 -66 55 -112 -11
-33 -51 -64 -84 -64 -46 0 -96 51 -96 98 0 33 48 82 88 91 1 1 18 -5 37 -13z"/>
<path d="M18140 10220 l0 -211 43 3 42 3 3 76 3 77 79 4 c74 3 82 5 112 36 30
29 33 38 33 92 0 54 -3 63 -33 92 l-32 33 -125 3 -125 4 0 -212z m208 124 c14
-10 22 -26 22 -44 0 -39 -32 -60 -91 -60 l-47 0 -3 43 c-6 72 -3 77 50 77 26
0 56 -7 69 -16z"/>
<path d="M19270 10354 l0 -75 -26 20 c-53 41 -142 13 -170 -54 -33 -80 -4
-199 57 -230 37 -20 92 -15 120 11 18 16 19 16 19 1 0 -13 9 -17 40 -17 l40 0
0 210 0 210 -40 0 -40 0 0 -76z m-23 -120 c23 -23 25 -32 21 -80 -6 -68 -32
-100 -73 -90 -56 14 -73 139 -25 178 30 24 46 23 77 -8z"/>
<path d="M19440 10390 l0 -40 40 0 40 0 0 40 0 40 -40 0 -40 0 0 -40z"/>
<path d="M19953 10389 c-25 -16 -33 -28 -33 -50 0 -19 -5 -29 -15 -29 -10 0
-15 -10 -15 -30 0 -19 5 -30 14 -30 10 0 14 -25 18 -106 6 -124 15 -139 83
-139 52 0 65 11 58 46 -4 21 -9 25 -29 21 -26 -5 -25 -9 -25 88 0 33 0 67 0
75 1 9 11 15 26 15 21 0 25 5 25 30 0 25 -4 30 -25 30 -23 0 -25 3 -25 50 0
57 -8 61 -57 29z"/>
<path d="M18634 10303 c-13 -13 -19 -14 -22 -5 -2 7 -21 12 -43 12 l-39 0 0
-150 0 -150 40 0 40 0 0 91 c0 118 18 155 72 143 23 -5 27 -1 33 27 5 22 3 34
-6 40 -23 14 -56 10 -75 -8z"/>
<path d="M18825 10311 c-52 -23 -85 -85 -85 -159 0 -90 59 -152 145 -152 62 0
139 59 120 90 -11 18 -69 11 -83 -10 -12 -20 -47 -26 -68 -12 -13 8 -34 46
-34 61 0 7 36 11 100 11 97 0 100 1 100 23 0 85 -52 148 -127 153 -26 2 -57 0
-68 -5z m95 -71 c37 -37 26 -50 -40 -50 -59 0 -71 8 -52 36 9 14 43 33 60 34
6 0 21 -9 32 -20z"/>
<path d="M19661 10302 c-46 -25 -71 -74 -71 -140 0 -98 55 -157 145 -156 62 1
90 15 115 57 28 45 25 54 -16 59 -30 4 -38 0 -47 -19 -20 -44 -90 -42 -108 4
-17 47 -11 102 16 128 30 31 49 31 80 1 20 -20 31 -24 60 -19 19 3 35 10 35
14 0 5 -15 26 -33 46 -29 31 -41 37 -88 40 -40 3 -63 -1 -88 -15z"/>
<path d="M20180 10303 c-103 -53 -105 -229 -3 -279 110 -53 233 18 233 133 0
56 -24 107 -63 135 -41 29 -120 34 -167 11z m124 -72 c39 -43 28 -131 -18
-152 -58 -27 -114 28 -102 99 7 47 32 72 71 72 18 0 39 -8 49 -19z"/>
<path d="M20590 10313 c-8 -3 -23 -13 -33 -22 -15 -13 -18 -13 -15 -1 2 11 -8
16 -34 18 l-38 3 0 -150 0 -151 40 0 40 0 0 90 c0 87 12 138 34 142 6 1 22 2
36 2 31 1 54 51 30 66 -16 11 -37 11 -60 3z"/>
<path d="M20732 10301 c-37 -24 -52 -55 -45 -94 8 -40 57 -67 166 -91 31 -7
36 -31 8 -46 -33 -17 -71 -11 -94 14 -17 18 -29 22 -54 19 -39 -6 -42 -22 -10
-57 32 -37 104 -54 165 -38 58 16 81 37 88 83 9 53 -24 85 -109 108 -73 20
-93 32 -83 50 11 16 82 13 96 -4 14 -16 57 -20 79 -6 10 7 7 16 -17 42 -26 30
-36 33 -93 36 -51 3 -70 0 -97 -16z"/>
<path d="M19440 10160 l0 -150 40 0 40 0 0 150 0 150 -40 0 -40 0 0 -150z"/>
<path d="M17526 9697 c-64 -100 -84 -240 -50 -344 23 -71 75 -153 96 -153 23
0 23 0 -11 68 -32 64 -51 141 -51 207 0 66 19 143 51 207 34 67 34 68 14 68
-8 0 -30 -24 -49 -53z"/>
<path d="M20463 9740 c-28 -12 -43 -40 -43 -84 0 -28 -4 -35 -22 -38 -34 -5
-37 -38 -4 -38 l26 0 0 -130 0 -130 25 0 25 0 0 130 0 130 30 0 c23 0 30 4 30
20 0 16 -7 20 -30 20 -24 0 -30 4 -30 21 0 37 19 59 50 59 23 0 30 5 30 19 0
29 -41 39 -87 21z"/>
<path d="M21510 9747 c0 -3 14 -34 31 -71 62 -133 62 -269 0 -402 -17 -36 -31
-68 -31 -70 0 -2 9 -4 20 -4 14 0 30 22 61 85 36 73 43 97 47 163 3 54 -1 96
-11 133 -20 68 -76 163 -100 167 -9 2 -17 1 -17 -1z"/>
<path d="M19240 9530 l0 -210 25 0 25 0 0 210 0 210 -25 0 -25 0 0 -210z"/>
<path d="M20280 9710 c0 -25 4 -30 25 -30 21 0 25 5 25 30 0 25 -4 30 -25 30
-21 0 -25 -5 -25 -30z"/>
<path d="M20570 9710 c0 -25 4 -30 25 -30 21 0 25 5 25 30 0 25 -4 30 -25 30
-21 0 -25 -5 -25 -30z"/>
<path d="M17721 9613 c-59 -31 -76 -64 -76 -149 0 -71 1 -75 36 -110 64 -64
174 -55 219 18 l20 33 -23 5 c-16 5 -30 -3 -53 -27 -57 -60 -124 -35 -149 55
-6 22 -6 22 109 22 l116 0 0 25 c0 104 -110 175 -199 128z m98 -38 c28 -14 41
-33 41 -61 0 -11 -18 -14 -80 -14 -71 0 -80 2 -80 18 0 22 18 46 45 60 27 15
41 15 74 -3z"/>
<path d="M18193 9615 c-93 -40 -96 -232 -3 -280 38 -20 90 -19 118 1 32 22 37
13 21 -38 -12 -37 -19 -44 -51 -52 -41 -10 -98 7 -98 30 0 8 -10 14 -25 14
-34 0 -32 -24 5 -62 29 -29 34 -30 95 -26 116 7 135 45 135 271 l0 147 -25 0
c-16 0 -25 -6 -25 -16 0 -13 -5 -12 -26 5 -31 24 -75 26 -121 6z m96 -40 c31
-16 51 -59 51 -109 -1 -97 -104 -139 -151 -62 -35 57 -16 156 34 176 31 12 34
12 66 -5z"/>
<path d="M19002 9615 c-41 -18 -71 -81 -72 -150 0 -117 92 -184 195 -141 35
15 70 67 61 92 -9 24 -43 16 -50 -11 -17 -66 -106 -69 -138 -5 -52 102 26 229
107 176 14 -9 25 -23 25 -31 0 -10 10 -15 30 -15 35 0 36 5 11 44 -37 55 -101
71 -169 41z"/>
<path d="M19424 9616 c-32 -14 -64 -51 -64 -73 0 -22 41 -14 61 12 39 48 122
42 135 -11 8 -33 -3 -40 -75 -49 -64 -8 -89 -19 -113 -49 -27 -32 -22 -73 11
-107 36 -35 88 -39 144 -10 32 16 39 17 44 5 3 -8 15 -14 27 -14 22 0 23 2 19
108 -6 161 -8 171 -48 188 -43 17 -100 17 -141 0z m136 -177 c0 -44 -47 -89
-93 -89 -34 0 -49 10 -60 42 -12 35 29 57 146 77 4 0 7 -13 7 -30z"/>
<path d="M19738 9614 c-47 -25 -62 -79 -33 -118 8 -10 49 -31 92 -45 60 -21
79 -32 81 -48 4 -26 -32 -53 -71 -53 -27 0 -77 38 -77 58 0 5 -11 7 -25 4 -29
-5 -29 -5 -10 -42 29 -56 108 -76 180 -46 38 16 55 42 55 83 0 45 -20 63 -105
91 -80 27 -95 42 -75 72 15 24 89 19 110 -8 19 -23 60 -31 60 -11 0 62 -113
101 -182 63z"/>
<path d="M20023 9611 c-36 -23 -47 -49 -38 -91 8 -34 31 -49 117 -74 67 -19
85 -48 48 -78 -34 -28 -77 -23 -110 12 -35 37 -75 42 -65 8 32 -110 245 -97
245 15 0 50 -18 66 -105 95 -57 19 -81 32 -83 46 -5 24 6 33 50 41 31 6 41 3
63 -19 26 -26 65 -35 65 -15 0 64 -118 102 -187 60z"/>
<path d="M20761 9613 c-59 -31 -76 -64 -76 -149 0 -71 1 -75 36 -110 64 -64
174 -55 219 18 l20 33 -23 5 c-16 5 -30 -3 -53 -27 -57 -60 -124 -35 -149 55
-6 22 -6 22 109 22 l116 0 0 25 c0 104 -110 175 -199 128z m98 -38 c28 -14 41
-33 41 -61 0 -11 -18 -14 -80 -14 -71 0 -80 2 -80 18 0 22 18 46 45 60 27 15
41 15 74 -3z"/>
<path d="M21096 9605 c-23 -24 -25 -25 -21 -6 3 17 -1 21 -21 21 l-24 0 0
-150 0 -150 25 0 25 0 0 103 c0 121 11 147 65 147 25 0 35 5 40 21 8 25 6 27
-33 35 -25 5 -35 1 -56 -21z"/>
<path d="M21258 9614 c-47 -25 -62 -79 -33 -118 8 -10 49 -31 92 -45 60 -21
79 -32 81 -48 4 -26 -32 -53 -71 -53 -27 0 -77 38 -77 58 0 5 -11 7 -25 4 -29
-5 -29 -5 -10 -42 29 -56 108 -76 180 -46 38 16 55 42 55 83 0 45 -20 63 -105
91 -80 27 -95 42 -75 72 15 24 89 19 110 -8 19 -23 60 -31 60 -11 0 62 -113
101 -182 63z"/>
<path d="M20280 9470 l0 -150 25 0 25 0 0 150 0 150 -25 0 -25 0 0 -150z"/>
<path d="M20570 9470 l0 -150 25 0 25 0 0 150 0 150 -25 0 -25 0 0 -150z"/>
<path d="M17997 9373 c-4 -3 -7 -17 -7 -30 0 -19 5 -23 30 -23 27 0 30 3 30
30 0 25 -4 30 -23 30 -13 0 -27 -3 -30 -7z"/>
<path d="M18480 9350 c0 -27 3 -30 30 -30 27 0 30 3 30 30 0 27 -3 30 -30 30
-27 0 -30 -3 -30 -30z"/>
<path d="M18640 9350 c0 -20 5 -30 15 -30 19 0 19 -20 0 -47 -11 -15 -12 -24
-4 -29 21 -12 42 24 47 80 l4 56 -31 0 c-28 0 -31 -3 -31 -30z"/>
<path d="M17220 8205 l0 -35 60 0 60 0 2 -172 3 -173 43 -3 42 -3 0 175 0 176
60 0 60 0 0 35 0 35 -165 0 -165 0 0 -35z"/>
<path d="M18150 8200 l0 -40 40 0 40 0 0 40 0 40 -40 0 -40 0 0 -40z"/>
<path d="M18670 8200 l0 -40 40 0 40 0 0 40 0 40 -40 0 -40 0 0 -40z"/>
<path d="M17702 8114 c-12 -8 -22 -10 -22 -5 0 6 -18 11 -40 11 l-40 0 0 -150
0 -150 40 0 40 0 0 90 c0 87 12 139 34 141 6 1 22 2 36 3 31 1 53 51 30 66
-22 14 -53 12 -78 -6z"/>
<path d="M17875 8116 c-17 -7 -36 -26 -43 -41 -15 -32 -16 -30 24 -38 24 -5
36 -1 49 13 21 23 53 26 80 6 32 -23 11 -44 -57 -57 -97 -19 -141 -77 -108
-140 25 -45 111 -58 164 -24 23 16 26 16 26 1 0 -12 10 -16 38 -16 l37 0 -3
102 c-4 149 -8 166 -45 188 -38 23 -116 26 -162 6z m125 -181 c0 -50 -70 -86
-100 -50 -19 23 -7 49 30 62 55 19 70 16 70 -12z"/>
<path d="M18425 8110 c-47 -24 -46 -24 -39 -5 5 12 -3 15 -35 15 l-41 0 0
-150 0 -150 40 0 40 0 0 100 c0 94 2 103 25 125 29 30 49 31 75 5 17 -17 20
-33 20 -125 l0 -105 40 0 40 0 0 115 c0 133 -11 167 -61 184 -44 15 -59 14
-104 -9z"/>
<path d="M18960 8119 c-13 -6 -32 -17 -42 -26 -16 -14 -17 -14 -13 6 3 19 -1
21 -36 21 l-39 0 0 -150 0 -150 40 0 40 0 0 100 c0 94 2 103 25 125 29 30 49
31 75 5 17 -17 20 -33 20 -125 l0 -105 40 0 40 0 0 123 c0 100 -3 126 -18 143
-33 42 -80 53 -132 33z"/>
<path d="M19245 8116 c-43 -19 -66 -59 -72 -126 -12 -128 88 -209 185 -150
l32 20 0 -34 c0 -19 -7 -42 -16 -50 -19 -20 -80 -21 -91 -2 -10 17 -103 33
-103 18 0 -27 26 -62 55 -77 47 -22 142 -20 182 5 44 27 53 67 53 248 l0 152
-40 0 c-31 0 -40 -4 -40 -17 0 -15 -2 -15 -19 1 -26 23 -89 30 -126 12z m112
-61 c24 -17 39 -71 29 -109 -9 -37 -34 -56 -71 -56 -29 0 -37 6 -51 32 -21 41
-13 106 16 130 27 22 49 23 77 3z"/>
<path d="M18150 7970 l0 -150 40 0 40 0 0 150 0 150 -40 0 -40 0 0 -150z"/>
<path d="M18670 7970 l0 -150 40 0 40 0 0 150 0 150 -40 0 -40 0 0 -150z"/>
<path d="M14000 4119 l0 -210 43 3 42 3 3 83 3 82 28 0 c32 0 65 -32 120 -118
33 -51 34 -52 82 -52 27 0 49 2 49 5 0 14 -103 157 -116 162 -19 7 -18 23 2
23 9 0 31 15 50 34 39 39 45 86 18 137 -24 47 -66 59 -204 59 l-120 0 0 -211z
m231 131 c23 -13 26 -62 3 -84 -11 -11 -35 -16 -82 -16 l-67 0 0 55 0 55 63 0
c35 0 72 -5 83 -10z"/>
<path d="M15290 4253 c0 -73 -1 -75 -18 -60 -46 42 -125 29 -165 -27 -18 -25
-22 -44 -22 -106 0 -85 21 -128 75 -150 34 -14 92 -6 110 15 16 19 31 19 24 0
-5 -12 3 -15 35 -15 l41 0 0 210 0 210 -40 0 -40 0 0 -77z m-33 -108 c44 -31
42 -142 -2 -171 -32 -21 -61 -10 -81 28 -22 43 -14 116 16 140 27 22 39 22 67
3z"/>
<path d="M18010 4120 l0 -210 40 0 40 0 0 210 0 210 -40 0 -40 0 0 -210z"/>
<path d="M18170 4291 c0 -40 0 -40 40 -39 40 0 40 1 40 39 0 39 0 39 -40 39
-40 0 -40 0 -40 -39z"/>
<path d="M14464 4204 c-25 -12 -54 -49 -54 -68 0 -2 15 -6 32 -8 23 -4 41 1
60 15 23 17 33 19 56 11 35 -12 36 -45 2 -55 -14 -4 -43 -10 -64 -14 -100 -17
-130 -127 -46 -170 39 -20 68 -19 113 5 31 17 37 17 37 5 0 -11 11 -15 38 -15
l38 0 -3 103 c-5 149 -9 165 -46 187 -39 24 -119 26 -163 4z m126 -179 c0 -50
-70 -86 -100 -50 -19 23 -7 49 30 62 55 19 70 16 70 -12z"/>
<path d="M14855 4200 c-46 -24 -46 -23 -42 -7 1 7 -12 13 -35 15 l-38 3 0
-150 0 -151 40 0 40 0 0 100 c0 94 2 103 25 125 28 29 42 31 73 9 20 -14 22
-23 22 -125 l0 -109 40 0 40 0 0 115 c0 133 -11 167 -61 184 -44 15 -59 14
-104 -9z"/>
<path d="M15515 4205 c-48 -26 -62 -43 -75 -91 -33 -118 31 -208 148 -208 83
1 141 55 150 142 5 60 -17 113 -61 144 -40 28 -121 35 -162 13z m129 -87 c30
-43 14 -120 -28 -139 -37 -17 -74 -3 -93 35 -47 100 60 192 121 104z"/>
<path d="M15940 4213 c-8 -3 -23 -12 -32 -21 -16 -14 -18 -13 -18 1 0 13 -9
17 -40 17 l-40 0 0 -150 0 -150 39 0 39 0 4 110 c3 111 7 123 44 134 43 13 54
-15 54 -135 l0 -109 40 0 40 0 0 96 c0 52 5 105 11 117 21 40 47 47 73 21 13
-12 16 -39 16 -125 l0 -109 40 0 40 0 0 124 c0 109 -2 126 -20 149 -30 38 -79
44 -132 18 -38 -18 -44 -19 -59 -5 -18 16 -76 27 -99 17z"/>
<path d="M16522 4201 c-37 -24 -52 -55 -45 -95 7 -35 37 -54 120 -77 77 -22
81 -24 67 -47 -18 -28 -80 -28 -106 0 -17 17 -32 22 -55 20 -41 -4 -43 -24 -5
-62 75 -75 252 -34 252 59 0 47 -36 79 -113 100 -73 20 -93 32 -83 50 11 16
82 13 96 -4 14 -16 57 -20 79 -6 10 7 7 16 -17 42 -26 30 -36 33 -93 36 -51 3
-70 0 -97 -16z"/>
<path d="M16854 4204 c-17 -8 -37 -27 -43 -41 -14 -30 -15 -28 25 -36 24 -5
36 -1 49 13 21 23 53 26 80 6 27 -19 12 -44 -32 -51 -69 -12 -102 -26 -123
-52 -71 -90 54 -183 156 -116 22 14 24 14 24 -1 0 -12 10 -16 38 -16 l37 0 -3
118 c-4 127 -14 160 -52 179 -34 17 -118 16 -156 -3z m126 -179 c0 -50 -70
-86 -100 -50 -19 23 -7 49 30 62 55 19 70 16 70 -12z"/>
<path d="M17270 4213 c-8 -3 -22 -12 -31 -20 -14 -12 -17 -12 -22 2 -4 9 -19
15 -42 15 l-35 0 0 -150 0 -150 39 0 39 0 4 110 c3 111 7 123 44 134 43 13 54
-15 54 -135 l0 -109 40 0 40 0 0 95 c0 52 5 105 11 119 13 28 44 39 71 25 16
-9 18 -23 18 -124 l0 -115 40 0 40 0 0 124 c0 109 -2 126 -20 149 -30 38 -79
44 -132 18 -38 -18 -44 -19 -59 -5 -18 16 -76 27 -99 17z"/>
<path d="M17790 4209 c-13 -6 -32 -17 -42 -25 -15 -15 -16 -14 -11 5 5 19 1
21 -36 21 l-41 0 0 -210 0 -210 40 0 40 0 0 77 c0 74 0 76 19 59 11 -10 37
-20 58 -22 101 -13 165 115 117 235 -24 60 -89 92 -144 70z m56 -73 c15 -11
19 -27 19 -74 0 -70 -14 -92 -61 -92 -43 0 -64 30 -64 90 0 25 7 56 16 68 18
26 60 29 90 8z"/>
<path d="M18445 4200 c-47 -24 -46 -24 -39 -5 5 12 -3 15 -35 15 l-41 0 0
-150 0 -150 40 0 40 0 0 96 c0 52 5 104 11 115 16 31 57 43 85 24 23 -15 24
-21 24 -125 l0 -110 40 0 40 0 0 115 c0 126 -9 159 -51 181 -38 19 -68 18
-114 -6z"/>
<path d="M18742 4205 c-40 -18 -71 -81 -72 -143 0 -117 98 -186 188 -132 l32
20 0 -34 c0 -19 -7 -42 -16 -50 -20 -20 -83 -21 -90 -1 -5 13 -89 33 -100 23
-13 -13 21 -68 51 -82 47 -23 142 -21 182 4 44 27 53 67 53 248 l0 152 -40 0
c-31 0 -40 -4 -40 -17 0 -15 -2 -15 -19 1 -26 24 -89 29 -129 11z m119 -64
c20 -16 24 -28 24 -76 0 -65 -17 -85 -72 -85 -43 0 -68 44 -60 104 9 68 61 95
108 57z"/>
<path d="M18170 4060 l0 -150 40 0 40 0 0 150 0 150 -40 0 -40 0 0 -150z"/>
<path d="M12652 3608 c-69 -102 -92 -248 -56 -355 24 -71 76 -153 96 -153 23
0 23 1 -7 58 -70 136 -72 289 -4 424 33 66 34 68 14 68 -8 0 -27 -19 -43 -42z"/>
<path d="M20270 3645 c0 -3 11 -28 25 -55 71 -141 71 -294 0 -433 -30 -58 -30
-57 -7 -57 22 0 66 71 92 150 24 71 26 166 5 236 -19 64 -75 158 -98 162 -9 2
-17 1 -17 -3z"/>
<path d="M13190 3610 c0 -25 4 -30 25 -30 21 0 25 5 25 30 0 25 -4 30 -25 30
-21 0 -25 -5 -25 -30z"/>
<path d="M13480 3430 l0 -210 25 0 c25 0 25 0 25 100 0 54 5 111 12 125 19 43
94 50 120 11 4 -6 8 -62 8 -123 l0 -113 25 0 25 0 0 124 c0 115 -2 127 -22
151 -32 36 -87 43 -133 17 l-35 -21 0 74 c0 73 -1 75 -25 75 l-25 0 0 -210z"/>
<path d="M14810 3430 l0 -210 25 0 25 0 0 210 0 210 -25 0 -25 0 0 -210z"/>
<path d="M17840 3430 l0 -210 25 0 c17 0 25 6 25 18 0 10 3 13 8 6 27 -41 98
-44 143 -7 60 51 76 140 40 220 -32 69 -111 94 -165 52 l-26 -20 0 75 c0 74
-1 76 -25 76 l-25 0 0 -210z m182 29 c23 -28 33 -100 18 -144 -15 -46 -49 -69
-90 -60 -44 10 -60 39 -60 113 0 57 3 66 30 94 25 24 36 29 58 24 15 -4 35
-16 44 -27z"/>
<path d="M13348 3609 c-12 -7 -18 -22 -18 -49 0 -33 -3 -40 -20 -40 -13 0 -20
-7 -20 -20 0 -13 7 -20 20 -20 19 0 20 -7 20 -119 0 -113 1 -121 22 -135 22
-16 69 -22 80 -10 12 12 -5 43 -26 46 -20 3 -21 9 -24 111 l-3 107 26 0 c18 0
25 5 25 20 0 15 -7 20 -25 20 -23 0 -25 3 -25 50 0 52 -3 56 -32 39z"/>
<path d="M17048 3606 c-12 -8 -18 -27 -18 -50 0 -29 -4 -36 -20 -36 -13 0 -20
-7 -20 -20 0 -13 7 -20 20 -20 19 0 20 -7 20 -119 0 -113 1 -121 22 -135 22
-16 69 -22 80 -10 12 12 -5 43 -26 46 -20 3 -21 9 -24 111 l-3 107 26 0 c18 0
25 5 25 20 0 15 -7 20 -25 20 -23 0 -25 3 -25 50 0 53 -4 58 -32 36z"/>
<path d="M18838 3609 c-12 -7 -18 -22 -18 -49 0 -33 -3 -40 -20 -40 -13 0 -20
-7 -20 -20 0 -13 7 -20 20 -20 19 0 20 -7 20 -119 0 -113 1 -121 22 -135 25
-17 74 -21 82 -7 10 16 -5 40 -27 43 -21 3 -22 9 -25 111 l-3 107 26 0 c18 0
25 5 25 20 0 15 -7 20 -25 20 -23 0 -25 3 -25 50 0 52 -3 56 -32 39z"/>
<path d="M19298 3609 c-12 -7 -18 -22 -18 -49 0 -33 -3 -40 -20 -40 -13 0 -20
-7 -20 -20 0 -13 7 -20 20 -20 19 0 20 -7 20 -119 0 -113 1 -121 22 -135 25
-17 74 -21 82 -7 10 16 -5 40 -27 43 -21 3 -22 9 -25 111 l-3 107 26 0 c18 0
25 5 25 20 0 15 -7 20 -25 20 -23 0 -25 3 -25 50 0 52 -3 56 -32 39z"/>
<path d="M14041 3511 c-16 -16 -21 -17 -21 -6 0 9 -9 15 -25 15 l-25 0 0 -150
0 -150 24 0 c24 0 24 1 28 110 3 122 14 144 67 142 22 0 32 5 36 19 8 25 6 27
-32 35 -24 5 -36 1 -52 -15z"/>
<path d="M14210 3508 c-86 -58 -95 -195 -17 -267 51 -46 154 -38 197 17 44 55
3 77 -46 25 -20 -21 -41 -33 -58 -33 -32 0 -84 47 -88 80 l-3 25 113 3 112 3
0 25 c0 109 -123 181 -210 122z m109 -33 c28 -14 41 -33 41 -61 0 -11 -18 -14
-80 -14 -71 0 -80 2 -80 18 0 22 18 46 45 60 27 15 41 15 74 -3z"/>
<path d="M14590 3523 c-8 -3 -23 -12 -32 -21 -16 -14 -18 -13 -18 1 0 11 -8
17 -25 17 l-25 0 0 -210 0 -210 25 0 c24 0 25 2 25 70 l0 71 30 -16 c37 -19
61 -19 105 2 87 41 101 199 24 270 -25 22 -83 36 -109 26z m59 -48 c68 -35 67
-176 -1 -211 -24 -12 -36 -13 -57 -4 -38 15 -52 44 -52 107 0 70 26 111 79
122 2 1 16 -6 31 -14z"/>
<path d="M14994 3516 c-32 -14 -64 -51 -64 -73 0 -21 48 -16 55 6 16 51 121
50 139 -2 5 -14 7 -29 4 -32 -2 -3 -31 -10 -64 -15 -77 -14 -112 -28 -129 -54
-40 -56 9 -136 82 -136 21 0 56 9 76 19 32 16 39 17 44 5 3 -8 15 -14 27 -14
22 0 23 2 19 108 -5 154 -9 169 -43 187 -36 18 -105 19 -146 1z m136 -177 c0
-47 -49 -91 -97 -87 -43 3 -69 38 -52 69 7 14 79 38 142 48 4 0 7 -13 7 -30z"/>
<path d="M15323 3515 c-40 -17 -64 -63 -70 -135 -4 -42 -1 -66 12 -93 44 -94
185 -104 231 -16 18 36 13 59 -15 59 -12 0 -21 -9 -25 -25 -9 -36 -48 -58 -86
-50 -44 10 -65 47 -65 115 0 68 21 105 65 115 35 8 80 -15 80 -40 0 -10 10
-15 30 -15 35 0 35 1 15 40 -28 55 -104 75 -172 45z"/>
<path d="M15610 3508 c-52 -35 -72 -80 -68 -155 3 -49 9 -68 28 -89 40 -42 78
-57 132 -52 51 5 81 25 104 70 14 27 14 28 -10 28 -14 0 -37 -13 -54 -30 -56
-55 -132 -26 -144 55 -3 19 3 20 110 23 124 3 122 1 102 73 -24 86 -128 126
-200 77z m109 -33 c28 -14 41 -33 41 -61 0 -11 -18 -14 -80 -14 -70 0 -80 2
-80 18 1 21 18 45 45 60 27 15 41 15 74 -3z"/>
<path d="M15980 3523 c-8 -3 -23 -12 -32 -21 -16 -14 -18 -13 -18 1 0 11 -8
17 -25 17 l-25 0 0 -150 0 -150 25 0 c25 0 25 0 25 100 0 54 5 111 12 125 20
45 100 47 112 3 3 -13 6 -69 6 -125 0 -102 0 -103 24 -103 24 0 24 1 28 116 3
129 11 144 75 144 46 0 53 -21 53 -149 l0 -111 25 0 25 0 0 124 c0 115 -2 127
-22 151 -34 38 -84 43 -129 12 -36 -25 -37 -25 -56 -6 -20 20 -77 33 -103 22z"/>
<path d="M16420 3508 c-118 -80 -82 -280 54 -295 26 -3 59 0 76 7 33 14 70 54
70 76 0 25 -41 15 -70 -16 -53 -57 -120 -30 -145 58 -6 22 -6 22 109 22 l116
0 0 25 c0 110 -123 182 -210 123z m109 -33 c28 -14 41 -33 41 -61 0 -11 -18
-14 -80 -14 -83 0 -89 4 -74 45 6 15 55 44 77 45 4 0 21 -7 36 -15z"/>
<path d="M16773 3511 c-26 -16 -32 -17 -37 -5 -3 8 -15 14 -26 14 -19 0 -20
-6 -20 -150 l0 -150 25 0 25 0 0 101 c0 83 7 125 25 147 1 1 16 7 33 12 25 7
36 4 57 -12 24 -19 25 -23 25 -134 l0 -114 25 0 25 0 0 121 c0 66 -5 129 -10
140 -13 23 -61 49 -92 49 -13 0 -37 -9 -55 -19z"/>
<path d="M18219 3510 c-46 -24 -69 -72 -69 -142 0 -94 56 -158 140 -158 83 0
140 64 140 158 0 129 -104 199 -211 142z m110 -35 c69 -35 65 -189 -5 -215
-36 -14 -81 -3 -99 23 -38 59 -25 165 23 191 34 19 46 19 81 1z"/>
<path d="M18539 3510 c-46 -24 -69 -72 -69 -142 0 -94 56 -158 140 -158 84 0
140 64 140 160 0 68 -24 117 -71 142 -43 23 -94 22 -140 -2z m110 -35 c69 -35
65 -189 -5 -215 -36 -14 -81 -3 -99 23 -38 59 -25 165 23 191 34 19 46 19 81
1z"/>
<path d="M19018 3514 c-50 -26 -64 -88 -29 -123 10 -10 51 -29 90 -41 81 -26
100 -51 61 -82 -34 -28 -77 -23 -110 12 -35 37 -75 42 -65 8 14 -45 50 -71
108 -76 86 -7 137 29 137 95 0 45 -20 63 -105 91 -78 26 -95 42 -77 70 5 7 25
15 45 19 29 4 40 1 62 -21 26 -26 65 -35 65 -15 0 62 -113 101 -182 63z"/>
<path d="M19501 3511 c-19 -19 -25 -19 -22 2 0 4 -10 7 -24 7 l-25 0 0 -150 0
-150 25 0 25 0 0 104 c0 121 13 150 68 148 23 0 33 5 37 19 8 25 6 27 -32 35
-24 5 -36 1 -52 -15z"/>
<path d="M19674 3516 c-32 -14 -64 -51 -64 -73 0 -23 46 -15 58 11 22 50 133
40 140 -13 5 -30 -8 -37 -77 -46 -64 -8 -89 -19 -113 -49 -18 -21 -24 -73 -10
-92 31 -45 104 -56 165 -25 32 16 39 17 44 5 3 -8 15 -14 27 -14 22 0 22 2 18
118 -4 132 -13 164 -48 181 -33 15 -102 13 -140 -3z m136 -177 c0 -44 -47 -89
-93 -89 -41 0 -60 19 -55 57 3 25 9 30 68 45 36 9 68 16 73 17 4 1 7 -13 7
-30z"/>
<path d="M20044 3520 c-12 -5 -25 -13 -29 -19 -10 -17 -25 -13 -19 4 5 11 -1
15 -20 15 l-26 0 0 -210 0 -210 25 0 c24 0 25 2 25 70 l0 71 32 -17 c39 -20
92 -13 126 18 69 64 69 192 1 255 -28 25 -84 36 -115 23z m66 -45 c29 -15 50
-62 50 -113 0 -71 -62 -128 -112 -101 -38 20 -47 41 -48 104 0 75 24 113 78
124 2 1 16 -6 32 -14z"/>
<path d="M12778 3370 c44 -146 46 -150 73 -150 26 0 28 4 55 109 16 61 30 108
32 106 2 -2 16 -50 32 -107 26 -100 28 -103 55 -103 27 0 30 4 66 120 56 175
56 175 25 175 -14 0 -26 -5 -26 -11 0 -7 -14 -57 -31 -113 l-32 -101 -30 113
c-29 108 -31 112 -57 112 -27 0 -29 -4 -56 -110 -16 -60 -31 -110 -34 -110 -3
0 -18 50 -34 110 -28 106 -30 110 -56 110 l-27 0 45 -150z"/>
<path d="M13190 3370 l0 -150 25 0 25 0 0 150 0 150 -25 0 -25 0 0 -150z"/>
<path d="M17330 3501 c0 -38 9 -41 146 -41 l134 0 0 25 0 25 -140 0 c-78 0
-140 -4 -140 -9z"/>
<path d="M17337 3383 c-4 -3 -7 -15 -7 -25 0 -17 11 -18 140 -18 l140 0 0 25
0 25 -133 0 c-74 0 -137 -3 -140 -7z"/>
<path d="M12350 1535 l0 -35 60 0 60 0 2 -172 3 -173 43 -3 42 -3 0 175 0 176
60 0 60 0 0 35 0 35 -165 0 -165 0 0 -35z"/>
<path d="M13280 1530 l0 -40 40 0 40 0 0 40 0 40 -40 0 -40 0 0 -40z"/>
<path d="M13800 1530 l0 -40 40 0 40 0 0 40 0 40 -40 0 -40 0 0 -40z"/>
<path d="M15520 1533 c-32 -22 -40 -33 -40 -60 0 -14 -6 -23 -15 -23 -10 0
-15 -10 -15 -30 0 -20 5 -30 15 -30 12 0 15 -15 15 -79 0 -111 7 -139 41 -156
33 -17 49 -18 82 -6 19 8 23 15 19 39 -3 24 -8 29 -24 24 -29 -7 -33 7 -30 97
3 78 4 81 28 81 20 0 24 5 24 30 0 25 -4 30 -25 30 -23 0 -25 3 -25 50 0 55
-9 61 -50 33z"/>
<path d="M12836 1445 c-33 -18 -39 -19 -31 -5 4 6 -10 10 -34 10 l-41 0 0
-150 0 -150 40 0 40 0 0 90 c0 87 12 138 34 142 6 1 22 2 35 2 17 1 27 9 34
30 15 45 -22 60 -77 31z"/>
<path d="M13005 1446 c-27 -12 -65 -60 -54 -70 2 -2 18 -6 35 -9 24 -5 36 -1
49 13 21 23 53 26 80 6 27 -19 12 -44 -32 -51 -69 -12 -102 -26 -123 -52 -40
-51 -17 -114 49 -134 33 -10 45 -8 84 9 38 17 47 18 47 6 0 -10 12 -14 38 -14
l38 0 -3 103 c-5 149 -9 165 -46 187 -37 23 -116 26 -162 6z m125 -181 c0 -54
-77 -88 -100 -44 -16 29 -6 47 32 58 56 16 68 13 68 -14z"/>
<path d="M13572 1445 c-33 -15 -49 -16 -44 -2 1 4 -16 7 -38 7 l-40 0 0 -150
0 -150 40 0 40 0 0 99 c0 80 3 103 18 119 27 32 58 36 81 13 19 -19 21 -33 21
-126 l0 -105 40 0 40 0 0 114 c0 136 -8 162 -55 181 -42 18 -61 18 -103 0z"/>
<path d="M14077 1441 c-29 -15 -37 -16 -37 -5 0 10 -12 14 -40 14 l-40 0 0
-150 0 -150 40 0 40 0 0 99 c0 80 3 103 18 119 27 32 58 36 81 13 19 -19 21
-33 21 -126 l0 -105 40 0 40 0 0 115 c0 133 -11 167 -61 184 -44 15 -59 14
-102 -8z"/>
<path d="M14361 1438 c-39 -26 -59 -72 -60 -136 -2 -116 97 -186 187 -132 l32
20 0 -34 c0 -19 -7 -42 -16 -50 -20 -20 -83 -21 -90 -1 -5 13 -89 33 -100 23
-13 -13 21 -68 51 -82 47 -23 142 -21 182 4 44 27 53 67 53 248 l0 152 -40 0
c-31 0 -40 -4 -40 -17 0 -15 -2 -14 -20 2 -32 29 -99 31 -139 3z m128 -55 c27
-22 38 -83 22 -122 -25 -59 -96 -61 -121 -2 -25 61 9 141 60 141 10 0 27 -8
39 -17z"/>
<path d="M14885 1451 c-58 -25 -79 -107 -36 -142 20 -17 84 -40 144 -53 50
-12 26 -56 -30 -56 -23 0 -41 8 -56 24 -17 18 -29 22 -54 19 -42 -7 -42 -26
-3 -63 77 -72 232 -40 246 51 9 53 -23 84 -109 108 -73 20 -93 32 -83 50 11
16 82 13 96 -4 14 -16 57 -20 79 -6 10 7 7 16 -17 42 -27 30 -35 33 -93 36
-35 1 -73 -1 -84 -6z"/>
<path d="M15225 1451 c-52 -23 -85 -85 -85 -159 0 -90 59 -152 145 -152 62 0
139 59 120 90 -11 18 -69 11 -83 -10 -17 -28 -56 -25 -81 6 -38 49 -31 54 79
54 97 0 100 1 100 23 0 85 -52 148 -127 153 -26 2 -57 0 -68 -5z m95 -71 c37
-37 26 -50 -40 -50 -63 0 -73 9 -47 42 25 32 60 35 87 8z"/>
<path d="M13280 1300 l0 -150 40 0 40 0 0 150 0 150 -40 0 -40 0 0 -150z"/>
<path d="M13800 1300 l0 -150 40 0 40 0 0 150 0 150 -40 0 -40 0 0 -150z"/>
</g>
</svg>
